<?xml version="1.0" standalone="no"?><!DOCTYPE svg PUBLIC "-//W3C//DTD SVG 1.1//EN" "http://www.w3.org/Graphics/SVG/1.1/DTD/svg11.dtd"><svg height="2000" legacy-metrics="false" node-id="1" sillyvg="true" template-height="2000" template-width="1400" version="1.1" viewBox="0 0 1400 2000" width="1400" xmlns="http://www.w3.org/2000/svg" xmlns:xlink="http://www.w3.org/1999/xlink"><defs node-id="66"><clipPath id="clip-path" node-id="5"><path d="M 952.78 1297.00 C 952.78 1297.00 973.97 1309.70 964.01 1349.91 C 954.05 1390.12 949.72 1398.17 953.55 1412.34 C 957.38 1426.51 966.18 1433.00 977.00 1439.92 C 987.82 1446.84 992.45 1454.73 995.77 1460.61 C 999.09 1466.49 1011.77 1473.12 1024.49 1475.80 C 1037.21 1478.48 1066.24 1500.95 1075.94 1506.80 C 1085.64 1512.65 1102.88 1519.05 1114.49 1514.33 C 1126.10 1509.61 1135.17 1514.97 1144.75 1516.88 C 1154.33 1518.79 1171.17 1517.01 1181.64 1507.95 C 1192.11 1498.89 1211.90 1504.50 1218.28 1500.67 C 1227.16 1495.64 1237.34 1493.37 1247.52 1494.16 C 1259.77 1495.05 1266.52 1493.78 1273.30 1497.61 C 1280.08 1501.44 1286.07 1502.08 1292.20 1497.73 C 1298.33 1493.38 1315.43 1502.20 1321.05 1502.84 C 1326.67 1503.48 1327.81 1502.97 1331.90 1501.69 C 1335.99 1500.41 1344.03 1506.80 1348.11 1506.93 C 1352.19 1507.06 1358.20 1503.61 1367.26 1505.14 C 1376.32 1506.67 1387.56 1506.80 1394.96 1500.93 C 1402.36 1495.06 1410.66 1491.48 1417.56 1491.10 C 1424.46 1490.72 1431.35 1484.10 1436.71 1476.67 C 1442.07 1469.24 1454.32 1460.33 1459.81 1457.78 C 1465.30 1455.23 1471.94 1436.84 1472.07 1421.52 C 1472.20 1406.20 1472.83 1382.20 1469.64 1377.22 C 1466.45 1372.24 1471.17 1362.16 1471.30 1357.22 C 1471.43 1352.28 1466.20 1340.12 1466.07 1333.35 C 1465.94 1326.58 1467.07 1322.12 1468.62 1314.58 C 1470.17 1307.04 1454.71 1298.37 1452.79 1293.14 C 1450.87 1287.91 1449.22 1275.14 1442.58 1270.80 C 1435.94 1266.46 1417.83 1253.13 1415.00 1248.20 C 1412.17 1243.27 1408.49 1243.46 1402.41 1241.88 C 1396.33 1240.30 1374.27 1230.54 1369.81 1226.13 C 1365.35 1221.72 1349.61 1227.47 1345.02 1227.71 C 1340.43 1227.95 1334.26 1224.30 1327.49 1224.47 C 1320.72 1224.64 1290.79 1237.22 1282.24 1238.63 C 1273.69 1240.04 1265.24 1241.56 1252.49 1230.84 C 1239.74 1220.12 1217.77 1211.05 1203.22 1213.60 C 1188.67 1216.15 1177.94 1213.60 1170.66 1211.69 C 1163.38 1209.78 1157.39 1207.99 1140.54 1213.09 C 1123.69 1218.19 1104.15 1224.71 1094.20 1225.73 C 1084.25 1226.75 1050.66 1222.16 1032.41 1242.58 C 1032.41 1242.58 1014.92 1236.20 1007.13 1240.58 C 999.34 1244.96 986.83 1264.58 981.60 1270.58 C 976.37 1276.58 952.78 1297.00 952.78 1297.00 Z" fill="#000000" fill-rule="nonzero" node-id="69" stroke="none" target-height="307.80347" target-width="519.97864" target-x="952.21094" target-y="1209.7612"></path></clipPath><clipPath id="clip-path-3" node-id="7"><path d="M 1220.08 427.58 C 1220.08 427.58 1250.23 392.52 1365.76 403.32 C 1365.76 403.32 1410.18 433.48 1479.87 419.62 C 1479.87 419.62 1495.15 432.33 1513.22 435.38 C 1531.29 438.43 1542.15 446.79 1548.67 447.95 C 1555.19 449.11 1583.04 448.63 1589.43 439.66 C 1595.82 430.69 1602.43 421.25 1608.65 417.28 C 1614.87 413.31 1615.17 407.60 1614.15 404.14 C 1613.13 400.68 1614.15 395.07 1617.36 392.14 C 1620.57 389.21 1620.54 378.28 1603.86 381.03 C 1587.18 383.78 1530.20 373.32 1438.91 312.74 C 1347.62 252.16 1307.69 279.45 1272.78 302.28 C 1237.87 325.11 1193.45 386.50 1193.45 386.50 Z" fill="#000000" fill-rule="nonzero" node-id="73" stroke="none" target-height="172.39279" target-width="425.55286" target-x="1193.45" target-y="276.00162"></path></clipPath><clipPath id="clip-path-4" node-id="9"><path d="M 810.58 401.00 C 794.18 396.34 776.54 400.55 764.00 412.10 C 742.00 431.81 688.91 497.00 633.14 521.33 C 577.37 545.66 635.93 578.08 660.60 569.06 C 660.60 569.06 655.26 583.71 668.26 584.96 C 681.26 586.21 703.26 589.58 711.26 585.91 C 719.26 582.24 727.19 575.74 735.79 577.31 C 744.39 578.88 771.64 572.91 780.79 560.01 C 789.94 547.11 796.30 540.41 806.37 536.22 C 816.44 532.03 836.66 505.61 844.11 497.85 C 851.56 490.09 864.30 480.24 871.50 483.10 C 871.45 483.10 846.40 438.20 810.58 401.00 Z" fill="#000000" fill-rule="nonzero" node-id="77" stroke="none" target-height="188.3648" target-width="261.6715" target-x="609.8285" target-y="399.1894"></path></clipPath><clipPath id="clip-path-5" node-id="11"><path d="M 1040.14 524.11 C 1040.14 524.11 1028.31 497.91 1041.71 435.48 C 1055.11 373.05 1065.26 313.12 1074.46 296.08 C 1083.66 279.04 1084.99 273.48 1095.14 260.65 C 1105.29 247.82 1101.97 254.08 1106.82 239.27 C 1111.67 224.46 1116.01 205.06 1126.73 190.27 C 1137.45 175.48 1138.00 153.00 1137.20 146.46 C 1137.20 146.46 1119.93 131.46 1119.20 99.32 C 1118.47 67.18 1112.20 41.69 1117.20 40.15 C 1122.20 38.61 1127.54 61.70 1129.84 64.86 C 1132.14 68.02 1135.02 62.08 1137.48 60.55 C 1139.94 59.02 1141.90 60.07 1144.34 59.45 C 1147.59 58.30 1150.32 56.01 1152.00 53.00 C 1153.34 50.13 1154.00 47.69 1156.45 47.45 C 1158.90 47.21 1169.19 58.75 1173.45 59.27 C 1177.71 59.79 1178.95 46.73 1182.93 46.49 C 1186.91 46.25 1188.77 53.67 1191.69 53.49 C 1194.61 53.31 1197.62 47.60 1200.26 47.03 C 1202.90 46.46 1210.50 54.68 1213.13 54.30 C 1215.76 53.92 1214.86 47.41 1217.13 45.30 C 1219.40 43.19 1227.13 43.43 1234.37 48.46 C 1241.61 53.49 1248.25 55.46 1250.55 50.14 C 1252.85 44.82 1257.55 40.75 1260.99 40.37 C 1264.43 39.99 1263.14 31.71 1266.35 29.03 C 1269.56 26.35 1292.58 17.20 1296.99 24.57 C 1301.40 31.94 1309.34 56.74 1304.93 90.25 C 1300.52 123.76 1286.45 176.71 1287.22 186.09 C 1287.99 195.47 1291.69 269.84 1275.35 306.09 L 1163.61 554.09 Z" fill="#000000" fill-rule="nonzero" node-id="81" stroke="none" target-height="532.31683" target-width="270.86572" target-x="1035.3282" target-y="21.773216"></path></clipPath><clipPath id="clip-path-6" node-id="13"><path d="M 961.73 498.56 C 946.23 499.91 933.63 521.04 913.97 535.73 C 894.31 550.42 876.97 567.07 856.69 572.26 C 836.41 577.45 814.33 583.26 801.58 599.49 C 788.83 615.72 761.58 652.01 768.51 681.83 C 775.44 711.65 775.21 719.01 786.24 731.11 C 797.27 743.21 804.39 768.28 817.57 785.36 C 830.75 802.44 838.75 817.13 862.31 831.18 C 885.87 845.23 918.51 862.08 939.25 869.43 C 959.99 876.78 998.69 889.96 1004.09 896.88 C 1009.49 903.80 1011.87 892.99 1018.09 887.15 C 1024.31 881.31 1092.01 799.84 1126.80 772.39 C 1161.59 744.94 1190.80 702.15 1217.14 677.94 C 1243.48 653.73 1233.14 635.80 1228.14 624.78 C 1223.14 613.76 1218.14 591.71 1215.38 581.55 C 1212.62 571.39 1207.38 569.02 1197.88 556.91 C 1188.38 544.80 1188.80 531.84 1177.35 525.79 C 1165.90 519.74 1155.08 524.28 1144.49 520.17 C 1133.90 516.06 1102.78 517.79 1080.74 518.23 C 1058.70 518.67 1035.74 527.30 1018.28 520.60 C 1000.82 513.90 979.00 497.05 961.73 498.56 Z" fill="#000000" fill-rule="nonzero" node-id="85" stroke="none" target-height="400.60004" target-width="466.97632" target-x="767.39087" target-y="498.50024"></path></clipPath></defs><path d="M 0.00 0.00 L 1400.00 0.00 L 1400.00 2000.00 L 0.00 2000.00 Z" fill="#d1def2" fill-rule="nonzero" node-id="90" stroke="none" target-height="2000" target-width="1400" target-x="0" target-y="0"></path><path d="M 51.15 46.74 L 1351.15 46.74 L 1351.15 1946.74 L 51.15 1946.74 Z" fill="#5b5e72" fill-rule="nonzero" node-id="92" stroke="none" target-height="1900" target-width="1300" target-x="51.15" target-y="46.74"></path><path d="M 912.87 1946.99 L 913.06 1939.35 L 913.60 1918.01 L 914.45 1885.31 L 915.56 1843.59 L 916.88 1795.20 L 918.36 1742.49 L 919.96 1687.80 L 921.64 1633.49 L 923.34 1581.89 L 925.02 1535.36 L 926.63 1496.24 L 928.12 1466.87 L 928.88 1455.76 L 929.46 1449.61 L 931.84 1431.50 L 936.24 1399.43 L 942.24 1355.51 L 949.42 1301.81 L 957.38 1240.45 L 965.70 1173.53 L 973.97 1103.13 L 977.95 1067.30 L 981.77 1031.37 L 985.38 995.50 L 988.69 960.33 L 991.72 925.48 L 994.33 892.11 L 996.55 859.34 L 998.26 828.82 L 999.47 799.17 L 1000.07 772.55 L 1000.13 755.12 L 999.88 739.44 L 999.35 725.40 L 998.09 695.09 L 997.40 667.00 L 997.22 641.01 L 997.48 615.00 L 998.10 591.29 L 999.05 569.74 L 1000.36 548.21 L 1001.83 529.08 L 1003.43 512.17 L 1006.24 487.83 L 1008.92 468.88 L 1011.80 451.85 L 1014.10 440.43 L 1016.39 430.97 L 1017.54 427.40 L 1018.17 425.17 L 1018.14 423.82 L 1017.63 422.80 L 1016.78 422.25 L 1015.71 422.08 L 1014.48 422.24 L 1013.28 422.67 L 1012.24 423.32 L 1011.42 424.16 L 1008.79 427.37 L 1005.83 431.40 L 1001.68 437.59 L 997.42 444.58 L 992.51 453.58 L 989.38 459.90 L 986.18 467.00 L 982.92 474.96 L 979.97 483.01 L 977.17 491.80 L 974.52 501.36 L 972.30 511.01 L 970.44 521.33 L 968.95 532.38 L 968.01 543.48 L 967.62 555.22 L 967.83 567.65 L 968.76 593.28 L 969.21 616.69 L 969.19 639.52 L 968.69 660.97 L 967.69 682.10 L 966.19 702.71 L 964.18 723.26 L 961.63 744.13 L 958.58 765.21 L 954.92 787.47 L 951.09 810.48 L 947.20 835.80 L 943.47 861.83 L 939.75 889.49 L 936.18 917.60 L 932.69 946.66 L 929.35 975.93 L 926.15 1005.45 L 920.26 1063.98 L 918.47 1080.01 L 916.55 1093.29 L 914.29 1105.73 L 912.00 1116.10 L 909.48 1125.86 L 907.01 1134.23 L 901.96 1149.49 L 897.25 1163.68 L 895.17 1170.85 L 893.27 1178.61 L 891.70 1186.72 L 890.39 1196.10 L 889.50 1202.45 L 887.75 1212.56 L 882.71 1238.03 L 875.79 1270.52 L 867.47 1308.03 L 858.25 1348.58 L 848.64 1390.18 L 839.14 1430.83 L 830.25 1468.56 L 822.46 1501.36 L 816.28 1527.26 L 812.20 1544.25 L 810.73 1550.36 L 776.65 1945.98 Z" fill="#345b4a" fill-rule="nonzero" node-id="94" stroke-linecap="butt" stroke-width="1" target-height="1524.9109" target-width="241.52148" target-x="776.64996" target-y="422.07904"></path><path d="M 744.04 1425.06 L 744.64 1432.55 L 746.26 1453.62 L 748.65 1486.16 L 751.57 1528.05 L 754.76 1577.19 L 757.97 1631.47 L 760.95 1688.77 L 763.44 1746.98 L 764.43 1775.91 L 765.20 1803.99 L 765.73 1831.66 L 765.98 1857.70 L 765.91 1883.05 L 765.52 1905.98 L 764.72 1927.96 L 763.57 1946.74 L 860.46 1946.74 L 860.85 1940.12 L 861.64 1921.60 L 862.25 1893.17 L 862.32 1876.28 L 862.12 1856.82 L 861.61 1836.61 L 860.67 1814.55 L 859.29 1792.02 L 857.33 1768.35 L 855.71 1752.47 L 853.78 1736.43 L 851.53 1720.21 L 848.95 1704.04 L 846.00 1688.02 L 842.69 1672.13 L 839.87 1657.98 L 837.48 1643.11 L 835.55 1627.48 L 834.10 1611.80 L 833.02 1595.75 L 832.33 1579.31 L 831.99 1562.87 L 831.95 1546.43 L 832.21 1529.98 L 833.07 1505.46 L 834.37 1481.82 L 836.07 1458.63 L 837.98 1437.18 L 840.12 1416.48 L 842.22 1398.38 L 846.27 1367.77 L 849.31 1347.68 L 850.50 1340.47 Z" fill="#577a5e" fill-rule="nonzero" node-id="96" stroke-linecap="butt" stroke-width="1" target-height="606.27" target-width="118.27966" target-x="744.04" target-y="1340.47"></path><path d="M 820.40 1043.14 L 819.60 1035.58 L 819.37 1028.01 L 819.71 1020.42 L 821.11 1002.93 L 822.81 979.83 L 824.53 953.14 L 826.02 924.88 L 826.99 897.08 L 827.21 883.76 L 827.19 871.75 L 826.90 860.31 L 826.35 850.92 L 825.74 844.87 L 825.01 840.18 L 824.20 836.62 L 822.52 830.05 L 820.66 821.72 L 817.04 802.92 L 813.52 782.03 L 810.25 760.88 L 807.42 741.28 L 805.19 725.03 L 803.73 713.95 L 803.20 709.85 L 800.49 711.86 L 793.54 717.52 L 789.16 721.42 L 784.10 726.31 L 779.06 731.62 L 773.91 737.68 L 770.66 741.94 L 767.61 746.42 L 764.75 751.11 L 762.21 755.97 L 760.08 760.95 L 758.36 766.06 L 757.14 771.29 L 756.52 776.59 L 756.50 781.99 L 756.84 789.55 L 757.06 799.32 L 757.11 821.70 L 756.74 847.34 L 756.07 874.47 L 755.21 901.30 L 754.28 926.05 L 753.37 946.93 L 752.61 962.18 L 751.99 976.58 L 751.58 993.40 L 751.40 1010.89 L 751.41 1029.92 L 751.91 1069.35 L 752.87 1109.29 L 754.11 1147.35 L 755.42 1181.12 L 756.60 1208.21 L 757.45 1226.22 L 757.78 1232.76 L 801.44 1271.82 L 845.09 1217.82 L 843.94 1209.41 L 840.66 1185.59 L 835.48 1148.52 L 828.65 1100.32 L 820.40 1043.14 Z" fill="#345b4a" fill-rule="nonzero" node-id="98" stroke-linecap="butt" stroke-width="1" target-height="561.97" target-width="93.69299" target-x="751.39703" target-y="709.85"></path><path d="M 909.27 434.35 L 908.68 439.43 L 907.10 453.47 L 904.82 474.65 L 902.13 501.16 L 899.32 531.20 L 896.68 562.95 L 894.48 594.59 L 893.64 609.99 L 893.03 624.33 L 892.67 638.21 L 892.61 650.35 L 893.01 676.36 L 893.76 710.67 L 894.70 751.25 L 895.66 796.08 L 896.48 843.15 L 896.98 890.45 L 897.01 935.96 L 896.79 957.70 L 896.40 977.66 L 895.79 996.86 L 894.99 1013.53 L 893.89 1029.19 L 892.61 1041.56 L 890.92 1056.53 L 889.42 1072.85 L 888.15 1089.51 L 887.07 1106.74 L 886.16 1124.05 L 885.43 1141.15 L 884.37 1173.97 L 883.77 1203.14 L 883.49 1226.55 L 883.42 1242.13 L 883.43 1247.79 L 814.22 1272.49 L 814.63 1268.69 L 815.70 1258.44 L 817.21 1243.43 L 818.96 1225.36 L 820.70 1205.92 L 822.24 1186.82 L 823.34 1169.75 L 823.79 1156.41 L 823.68 1142.91 L 823.28 1129.02 L 822.57 1114.74 L 821.09 1093.29 L 819.17 1071.56 L 816.96 1049.86 L 814.59 1028.47 L 809.79 987.05 L 807.59 967.20 L 805.77 948.88 L 804.33 931.15 L 803.50 915.55 L 803.22 902.77 L 803.23 888.82 L 803.56 873.62 L 804.56 850.54 L 806.22 825.49 L 808.41 799.94 L 811.18 773.16 L 814.43 746.14 L 818.17 718.63 L 822.33 691.14 L 826.89 663.91 L 831.84 636.94 L 837.05 611.00 L 842.65 585.55 L 848.38 561.88 L 853.24 543.85 L 857.94 528.21 L 862.46 514.72 L 867.43 501.36 L 872.08 490.04 L 876.42 480.55 L 881.13 471.20 L 885.36 463.55 L 889.16 457.39 L 893.25 451.38 L 896.70 446.75 L 899.61 443.28 L 903.95 438.69 L 906.67 436.25 L 909.27 434.35 Z" fill="#577a5e" fill-rule="nonzero" node-id="100" stroke-linecap="butt" stroke-width="1" target-height="838.14" target-width="106.04993" target-x="803.22003" target-y="434.34998"></path><path d="M 510.22 1946.73 L 510.36 1909.09 L 510.84 1870.40 L 511.77 1828.41 L 513.23 1780.86 L 515.33 1725.47 L 518.15 1660.00 L 521.79 1582.17 L 526.36 1489.73 L 527.73 1466.57 L 529.52 1442.35 L 531.76 1417.02 L 534.31 1391.74 L 537.20 1365.75 L 540.45 1339.02 L 545.76 1298.85 L 551.64 1257.85 L 557.92 1216.76 L 564.53 1175.66 L 571.39 1134.71 L 578.33 1094.56 L 592.24 1016.69 L 605.46 944.17 L 617.21 879.13 L 622.39 849.42 L 626.68 823.70 L 630.43 799.45 L 633.09 780.00 L 634.50 767.49 L 635.31 757.69 L 635.63 750.17 L 636.12 736.59 L 637.05 724.29 L 638.36 713.16 L 640.12 702.05 L 642.09 692.15 L 644.23 683.37 L 646.73 674.64 L 649.20 667.07 L 651.63 660.57 L 652.46 659.16 L 653.58 658.07 L 655.05 657.26 L 657.52 656.59 L 660.18 656.54 L 661.95 656.86 L 663.50 657.42 L 664.87 658.22 L 665.97 659.28 L 666.65 660.55 L 666.94 662.08 L 667.33 701.94 L 667.86 755.77 L 668.51 821.56 L 669.28 897.28 L 670.14 980.92 L 671.07 1070.45 L 672.07 1163.86 L 673.11 1259.12 L 674.19 1354.21 L 675.27 1447.12 L 676.36 1535.82 L 677.42 1618.29 L 678.88 1706.31 L 680.55 1777.28 L 682.29 1832.98 L 683.94 1875.20 L 685.35 1905.73 L 686.36 1926.37 L 686.83 1938.90 L 686.79 1943.02 L 686.59 1945.10 L 686.26 1946.20 L 685.90 1946.67 L 685.49 1946.77 Z" fill="#345b4a" fill-rule="nonzero" node-id="102" stroke-linecap="butt" stroke-width="1" target-height="1290.2263" target-width="176.6073" target-x="510.22003" target-y="656.5437"></path><path d="M 521.57 950.23 L 521.28 947.93 L 520.90 942.33 L 520.90 938.94 L 521.16 935.40 L 521.79 931.97 L 522.81 929.07 L 524.59 925.82 L 526.07 923.76 L 527.63 922.09 L 528.99 920.93 L 531.62 918.73 L 534.29 915.62 L 537.82 910.77 L 539.59 908.03 L 541.14 905.32 L 542.42 902.62 L 543.16 900.40 L 544.23 895.83 L 544.99 893.41 L 546.13 890.80 L 547.66 888.24 L 549.89 885.48 L 552.66 882.88 L 556.56 880.05 L 558.70 878.44 L 560.66 876.58 L 562.46 874.43 L 564.88 870.96 L 567.04 867.29 L 570.92 860.19 L 572.86 857.03 L 574.72 854.67 L 576.13 853.40 L 577.56 852.63 L 579.06 852.29 L 581.73 852.38 L 584.30 852.88 L 586.78 853.79 L 589.14 855.04 L 591.26 856.52 L 593.17 858.24 L 594.86 860.17 L 596.18 862.12 L 597.16 864.11 L 599.46 868.95 L 603.07 875.27 L 605.19 878.57 L 607.41 881.71 L 609.74 884.62 L 611.91 886.90 L 613.47 888.21 L 614.83 889.04 L 616.02 889.49 L 618.91 890.34 L 621.03 891.48 L 622.16 892.49 L 623.11 893.84 L 623.86 895.58 L 624.53 898.60 L 624.83 903.18 L 625.12 905.56 L 625.79 907.77 L 626.86 909.85 L 628.92 912.76 L 631.39 915.54 L 636.44 920.84 L 638.57 923.58 L 640.01 926.35 L 642.36 931.99 L 643.55 934.92 L 644.75 938.48 L 645.74 942.38 L 646.63 947.59 L 647.19 953.36 L 647.47 961.11 L 647.33 965.50 L 646.88 970.07 L 646.13 974.82 L 644.61 981.86 L 642.77 988.64 L 640.70 995.17 L 638.72 1000.76 L 635.31 1009.35 L 633.88 1012.62 L 585.82 1026.06 Z" fill="#7574ba" fill-rule="nonzero" node-id="104" stroke-linecap="butt" stroke-width="1" target-height="173.76996" target-width="126.57007" target-x="520.89996" target-y="852.29"></path><path d="M 549.20 1230.54 L 556.86 1228.62 L 618.14 1094.01 L 617.96 1090.28 L 617.33 1086.62 L 616.27 1083.06 L 614.79 1079.64 L 613.18 1075.60 L 612.12 1071.62 L 611.39 1067.64 L 610.88 1063.92 L 610.39 1060.33 L 609.79 1057.24 L 608.72 1054.43 L 607.17 1052.00 L 605.28 1049.85 L 603.39 1048.12 L 600.22 1045.56 L 599.39 1044.63 L 598.39 1043.07 L 596.40 1039.49 L 595.34 1037.72 L 594.36 1036.36 L 593.28 1035.41 L 592.36 1035.22 L 591.97 1036.58 L 591.75 1038.10 L 591.70 1040.63 L 592.00 1043.46 L 592.89 1047.34 L 594.35 1051.45 L 596.86 1056.67 L 598.55 1060.31 L 599.61 1063.55 L 600.12 1066.46 L 600.25 1069.43 L 600.05 1072.03 L 599.55 1074.31 L 598.38 1077.49 L 597.07 1079.82 L 595.58 1081.72 L 594.57 1082.61 L 593.68 1082.96 L 593.02 1082.79 L 592.42 1082.29 L 591.79 1081.54 L 590.42 1080.07 L 589.56 1079.62 L 588.44 1079.55 L 587.80 1079.86 L 587.30 1080.51 L 586.96 1081.66 L 586.76 1083.63 L 586.73 1086.24 L 586.73 1091.72 L 586.49 1094.39 L 585.95 1096.55 L 584.82 1098.93 L 583.68 1100.38 L 582.28 1101.37 L 580.65 1101.90 L 578.83 1102.11 L 576.53 1102.12 L 574.77 1101.76 L 572.97 1100.84 L 569.62 1098.29 L 568.04 1097.03 L 566.75 1096.20 L 565.89 1095.89 L 565.20 1095.94 L 564.59 1096.31 L 561.69 1099.20 L 559.44 1101.11 L 557.20 1102.58 L 555.14 1103.47 L 552.95 1103.98 L 550.39 1104.18 L 543.93 1104.02 L 534.46 1103.78 L 526.36 1188.49 L 527.12 1191.17 L 529.03 1197.86 L 531.54 1206.55 L 534.09 1215.22 L 536.14 1221.88 L 536.95 1224.16 L 537.14 1224.49 L 539.26 1225.37 L 543.38 1227.46 L 547.40 1229.57 L 549.20 1230.54 Z" fill="#9a9adb" fill-rule="nonzero" node-id="106" stroke-linecap="butt" stroke-width="1" target-height="195.32007" target-width="91.78003" target-x="526.36" target-y="1035.22"></path><path d="M 593.68 1795.77 L 592.83 1788.78 L 590.91 1769.30 L 589.87 1756.13 L 588.83 1739.57 L 588.05 1721.99 L 587.54 1701.83 L 587.48 1680.96 L 587.97 1658.32 L 588.64 1643.05 L 589.66 1627.37 L 591.03 1611.26 L 592.79 1595.20 L 595.01 1579.09 L 597.68 1562.91 L 600.85 1546.83 L 604.56 1531.02 L 608.82 1515.49 L 616.34 1489.19 L 625.86 1454.49 L 636.80 1413.71 L 648.60 1369.15 L 660.68 1323.12 L 672.48 1277.93 L 683.42 1235.89 L 692.94 1199.32 L 700.46 1170.52 L 705.41 1151.81 L 707.08 1145.82 L 707.22 1145.49 L 707.60 1153.67 L 707.80 1168.82 L 707.77 1186.19 L 707.51 1209.82 L 706.45 1266.59 L 704.73 1337.25 L 702.46 1419.90 L 699.75 1512.65 L 696.70 1613.60 L 693.42 1720.87 L 690.03 1832.55 L 686.63 1946.76 L 582.44 1946.76 Z" fill="#577a5e" fill-rule="nonzero" node-id="108" stroke-linecap="butt" stroke-width="1" target-height="801.27" target-width="125.36444" target-x="582.44" target-y="1145.49"></path><path d="M 481.56 1230.08 L 479.37 1229.09 L 477.13 1227.84 L 473.90 1225.64 L 470.60 1222.89 L 466.82 1218.99 L 464.48 1216.08 L 462.14 1212.59 L 459.81 1208.43 L 457.84 1204.12 L 456.07 1199.08 L 454.53 1193.24 L 453.47 1187.31 L 452.82 1180.49 L 452.65 1172.67 L 452.92 1142.83 L 452.78 1111.33 L 452.15 1080.67 L 451.62 1066.16 L 450.96 1053.34 L 450.10 1041.27 L 449.15 1031.83 L 448.48 1024.39 L 448.31 1018.37 L 448.53 1013.55 L 449.16 1008.72 L 450.00 1005.09 L 450.98 1002.43 L 452.35 999.93 L 453.66 998.34 L 454.91 997.42 L 456.34 996.93 L 457.58 996.97 L 458.73 997.49 L 462.20 1000.37 L 465.92 1003.54 L 467.85 1004.81 L 469.60 1005.55 L 470.76 1005.72 L 471.85 1005.53 L 472.90 1004.96 L 472.32 1003.81 L 471.89 1002.58 L 471.53 1000.74 L 471.49 998.74 L 471.95 996.32 L 472.55 994.73 L 473.53 993.00 L 474.99 991.09 L 476.68 989.39 L 479.00 987.57 L 482.09 985.62 L 493.00 979.59 L 497.59 976.82 L 500.99 974.32 L 502.89 972.46 L 504.18 970.62 L 504.94 968.76 L 505.18 966.79 L 504.82 964.53 L 503.73 961.87 L 501.58 958.26 L 499.75 955.90 L 497.81 954.01 L 496.08 952.75 L 492.59 950.86 L 490.91 949.91 L 489.18 948.66 L 488.30 947.57 L 487.91 946.38 L 487.99 945.01 L 488.45 943.66 L 489.27 942.29 L 490.51 940.88 L 491.96 939.68 L 493.66 938.68 L 495.64 937.86 L 497.72 937.37 L 499.92 937.26 L 502.29 937.55 L 504.55 938.27 L 506.67 939.28 L 508.68 940.58 L 511.54 942.83 L 514.36 945.28 L 517.20 947.69 L 520.17 949.81 L 522.27 950.96 L 524.54 951.79 L 526.99 952.30 L 529.56 952.42 L 532.39 952.26 L 535.51 951.80 L 540.16 950.71 L 544.96 949.16 L 549.67 947.30 L 554.03 945.27 L 558.12 943.06 L 561.37 941.00 L 563.47 939.82 L 565.54 939.09 L 567.60 938.75 L 570.71 938.81 L 573.61 939.43 L 576.32 940.48 L 578.53 941.71 L 580.41 943.12 L 581.47 944.25 L 583.14 946.00 L 585.03 947.31 L 587.16 948.23 L 589.44 948.70 L 591.74 948.72 L 594.11 948.25 L 596.26 947.42 L 598.60 946.23 L 603.41 943.69 L 605.93 942.72 L 608.47 942.22 L 610.16 942.22 L 611.89 942.60 L 613.71 943.39 L 616.95 945.58 L 619.56 947.99 L 621.94 950.66 L 624.41 953.67 L 627.04 956.77 L 630.43 960.31 L 635.11 964.61 L 637.06 966.18 L 638.74 967.35 L 642.26 969.23 L 646.58 970.94 L 647.81 971.66 L 649.14 972.90 L 650.59 974.82 L 652.46 978.03 L 654.33 981.92 L 656.00 985.98 L 657.45 989.90 L 659.58 996.40 L 660.37 999.09 L 682.52 1075.71 L 667.71 1124.99 L 640.64 1158.69 L 611.82 1266.21 L 565.45 1362.21 L 547.45 1375.49 L 478.82 1260.85 Z" fill="#9a9adb" fill-rule="nonzero" node-id="110" stroke-linecap="butt" stroke-width="1" target-height="438.22766" target-width="234.21075" target-x="448.30927" target-y="937.2623"></path><path d="M 611.82 1266.25 L 565.45 1362.25 L 547.45 1375.52 L 478.82 1260.89 L 481.61 1230.11 L 479.42 1229.12 L 477.18 1227.87 L 473.95 1225.67 L 470.65 1222.92 L 466.87 1219.02 L 464.53 1216.11 L 462.19 1212.62 L 459.86 1208.46 L 457.89 1204.15 L 456.13 1199.11 L 454.58 1193.27 L 453.53 1187.34 L 452.88 1180.52 L 452.71 1172.70 L 452.98 1142.86 L 452.84 1111.36 L 452.21 1080.70 L 451.67 1066.19 L 451.02 1053.37 L 450.16 1041.30 L 449.21 1031.86 L 448.55 1024.43 L 448.37 1018.40 L 448.59 1013.58 L 449.22 1008.76 L 450.06 1005.14 L 451.04 1002.47 L 452.41 999.98 L 453.71 998.39 L 454.96 997.47 L 456.39 996.98 L 457.63 997.01 L 458.78 997.52 L 462.25 1000.38 L 465.97 1003.55 L 467.90 1004.83 L 469.65 1005.57 L 470.81 1005.75 L 471.90 1005.56 L 472.95 1004.99 L 474.39 1004.14 L 475.93 1003.37 L 478.14 1002.48 L 480.57 1001.79 L 483.35 1001.39 L 486.20 1001.48 L 489.15 1002.23 L 491.00 1003.11 L 492.85 1004.46 L 494.70 1006.34 L 496.45 1007.89 L 500.92 1011.37 L 503.79 1013.28 L 506.95 1015.06 L 510.24 1016.44 L 513.38 1017.19 L 515.45 1017.27 L 517.32 1016.89 L 519.05 1016.05 L 556.98 1009.21 L 559.84 1008.90 L 562.65 1008.96 L 565.44 1009.41 L 568.14 1010.23 L 570.69 1011.40 L 573.12 1012.94 L 575.32 1014.79 L 577.21 1016.88 L 578.80 1019.21 L 580.07 1021.73 L 580.98 1024.39 L 581.54 1027.21 Z" fill="#7574ba" fill-rule="nonzero" node-id="112" stroke-linecap="butt" stroke-width="1" target-height="378.54395" target-width="163.44794" target-x="448.37207" target-y="996.9761"></path><path d="M 692.57 1229.60 L 693.71 1225.06 L 696.56 1212.81 L 700.27 1194.87 L 702.16 1184.57 L 704.01 1173.29 L 705.62 1161.80 L 706.93 1150.10 L 707.82 1138.44 L 708.18 1127.34 L 708.08 1119.99 L 707.66 1113.24 L 706.93 1107.05 L 702.50 1077.85 L 699.03 1053.86 L 697.67 1043.25 L 696.64 1033.97 L 695.88 1025.04 L 695.44 1017.05 L 695.09 1011.09 L 694.63 1006.69 L 693.43 999.53 L 692.36 993.53 L 692.04 990.44 L 691.91 986.64 L 692.05 982.48 L 692.57 976.83 L 693.63 969.43 L 694.95 962.39 L 697.82 949.11 L 699.07 942.85 L 699.94 937.18 L 700.27 933.44 L 700.30 930.00 L 700.05 926.83 L 699.40 922.92 L 698.45 918.56 L 697.30 914.17 L 695.95 909.81 L 694.43 905.59 L 692.86 901.88 L 691.11 898.50 L 689.49 896.08 L 688.24 894.73 L 687.14 893.99 L 686.15 893.70 L 684.90 893.86 L 683.62 894.48 L 682.27 895.65 L 680.45 897.87 L 678.44 900.95 L 674.33 907.94 L 672.05 911.56 L 669.59 914.95 L 664.13 921.21 L 661.34 924.36 L 658.60 927.72 L 656.07 931.32 L 653.75 935.43 L 652.45 938.33 L 651.32 941.61 L 650.35 945.30 L 647.17 960.35 L 644.54 973.91 L 643.59 979.73 L 643.10 983.70 L 643.12 985.79 L 643.54 989.42 L 645.10 998.44 L 647.21 1009.29 L 649.30 1020.47 L 650.79 1030.52 L 651.14 1034.88 L 651.10 1037.95 L 650.27 1043.63 L 648.88 1049.66 L 645.64 1061.75 L 644.35 1067.77 L 643.70 1073.44 L 643.69 1081.11 L 644.07 1091.64 L 644.66 1103.12 L 645.29 1113.67 L 645.79 1121.39 L 646.00 1124.38 L 675.59 1221.15 Z" fill="#7574ba" fill-rule="nonzero" node-id="114" stroke-linecap="butt" stroke-width="1" target-height="335.89996" target-width="65.08423" target-x="643.10004" target-y="893.7"></path><path d="M 589.82 1521.23 L 520.38 1428.23 L 520.07 1424.72 L 519.35 1415.38 L 518.53 1401.97 L 517.92 1386.26 L 517.78 1378.07 L 517.81 1370.02 L 518.06 1362.11 L 518.53 1355.01 L 519.33 1348.29 L 520.38 1343.01 L 521.81 1336.23 L 522.53 1330.35 L 522.71 1324.63 L 522.42 1319.27 L 521.75 1313.96 L 520.80 1308.53 L 518.43 1296.86 L 517.22 1290.45 L 516.04 1283.01 L 515.72 1278.73 L 515.86 1274.37 L 516.47 1269.90 L 517.45 1265.47 L 518.75 1261.03 L 520.37 1256.54 L 523.19 1249.96 L 526.35 1243.54 L 532.98 1231.48 L 538.87 1220.96 L 541.18 1216.26 L 542.59 1212.57 L 543.70 1208.30 L 544.51 1204.12 L 545.91 1195.64 L 546.79 1191.32 L 548.03 1186.75 L 549.71 1182.16 L 552.13 1177.10 L 554.04 1173.81 L 556.46 1170.23 L 559.44 1166.33 L 562.28 1162.35 L 564.59 1158.28 L 566.39 1154.09 L 568.45 1147.58 L 569.87 1141.11 L 571.87 1128.66 L 572.96 1122.90 L 574.37 1118.01 L 575.68 1115.00 L 577.34 1112.49 L 579.36 1110.41 L 583.04 1107.08 L 586.36 1103.57 L 589.35 1099.87 L 593.42 1094.09 L 596.85 1088.60 L 602.59 1078.96 L 604.78 1076.09 L 607.45 1073.56 L 610.43 1071.48 L 613.47 1070.02 L 615.59 1069.38 L 617.54 1069.12 L 619.36 1069.20 L 621.06 1069.68 L 622.52 1070.58 L 623.78 1071.96 L 625.01 1073.39 L 626.43 1074.53 L 628.07 1075.38 L 630.73 1076.30 L 633.56 1076.97 L 638.99 1078.23 L 640.60 1078.85 L 641.95 1079.67 L 643.06 1080.68 L 643.81 1081.98 L 644.31 1083.66 L 644.51 1085.80 L 644.40 1089.12 L 644.00 1092.83 L 643.19 1099.90 L 643.12 1102.12 L 643.31 1103.84 L 643.70 1105.16 L 644.76 1106.93 L 646.21 1108.78 L 647.74 1110.71 L 649.32 1113.07 L 650.20 1114.78 L 650.95 1116.85 L 651.56 1119.35 L 651.86 1121.90 L 651.86 1125.06 L 651.48 1128.95 L 651.31 1132.04 L 651.61 1134.93 L 652.38 1137.67 L 653.51 1140.30 L 654.93 1142.86 L 656.63 1145.33 L 659.46 1148.88 L 662.46 1152.29 L 665.44 1155.64 L 668.06 1158.86 L 669.62 1161.08 L 670.80 1163.25 L 671.65 1165.38 L 672.54 1168.89 L 673.35 1173.19 L 674.53 1182.48 L 675.28 1191.92 L 675.70 1200.16 L 675.87 1205.84 L 676.13 1207.99 L 676.88 1211.07 L 679.21 1218.04 L 682.04 1225.51 L 684.53 1232.25 L 685.45 1235.14 L 685.87 1237.03 L 685.82 1238.60 L 685.23 1242.03 L 683.04 1251.02 L 679.88 1262.27 L 676.37 1274.05 L 673.12 1284.61 L 670.72 1292.22 L 669.79 1295.14 L 640.49 1405.92 L 658.72 1454.92 Z" fill="#7574ba" fill-rule="nonzero" node-id="116" stroke-linecap="butt" stroke-width="1" target-height="452.10608" target-width="170.15253" target-x="515.71747" target-y="1069.1239"></path><path d="M 490.76 1253.92 L 523.12 1346.99 L 524.38 1348.41 L 527.44 1351.76 L 531.22 1355.68 L 534.63 1358.78 L 536.03 1359.67 L 536.61 1359.71 L 539.52 1358.41 L 545.66 1355.77 L 553.40 1352.12 L 557.38 1350.02 L 561.10 1347.81 L 564.52 1345.44 L 567.12 1343.18 L 568.56 1341.51 L 569.42 1339.98 L 569.82 1338.56 L 569.82 1336.47 L 569.40 1332.28 L 567.67 1321.33 L 565.05 1307.39 L 561.97 1292.18 L 558.84 1277.40 L 556.08 1264.73 L 554.12 1255.89 L 553.37 1252.56 L 537.29 1235.33 Z" fill="#9a9adb" fill-rule="nonzero" node-id="118" stroke-linecap="butt" stroke-width="1" target-height="124.380005" target-width="79.06201" target-x="490.76" target-y="1235.33"></path><path d="M 602.82 1517.06 L 533.37 1428.72 L 533.06 1425.39 L 532.34 1416.51 L 531.52 1403.77 L 530.91 1388.85 L 530.77 1381.07 L 530.80 1373.42 L 531.05 1365.92 L 531.52 1359.18 L 532.32 1352.80 L 533.37 1347.79 L 534.80 1341.36 L 535.52 1335.78 L 535.70 1330.35 L 535.41 1325.26 L 534.74 1320.22 L 533.79 1315.06 L 531.42 1303.98 L 530.21 1297.91 L 529.03 1290.85 L 528.71 1286.79 L 528.85 1282.66 L 529.46 1278.41 L 530.44 1274.22 L 531.74 1270.00 L 533.36 1265.73 L 536.18 1259.48 L 539.34 1253.38 L 545.97 1241.92 L 551.86 1231.93 L 554.17 1227.46 L 555.58 1223.96 L 556.69 1219.91 L 557.50 1215.94 L 558.90 1207.88 L 559.78 1203.78 L 561.02 1199.44 L 562.69 1195.08 L 565.12 1190.27 L 567.03 1187.15 L 569.44 1183.75 L 572.43 1180.04 L 575.28 1176.25 L 577.58 1172.38 L 579.38 1168.41 L 581.44 1162.23 L 582.86 1156.09 L 584.86 1144.27 L 585.95 1138.80 L 587.36 1134.15 L 588.67 1131.30 L 590.33 1128.92 L 592.35 1126.93 L 596.03 1123.76 L 599.36 1120.42 L 602.35 1116.91 L 606.42 1111.43 L 609.84 1106.22 L 615.58 1097.06 L 617.77 1094.34 L 620.43 1091.93 L 623.41 1089.96 L 626.46 1088.57 L 628.58 1087.97 L 630.53 1087.72 L 632.35 1087.80 L 634.06 1088.25 L 635.52 1089.11 L 636.77 1090.42 L 639.17 1093.25 L 641.86 1095.66 L 647.52 1099.82 L 650.16 1101.86 L 652.35 1103.96 L 653.57 1105.81 L 654.37 1107.99 L 654.84 1110.35 L 655.13 1112.86 L 655.58 1117.78 L 656.01 1120.06 L 656.69 1121.96 L 657.76 1123.64 L 659.22 1125.40 L 660.75 1127.23 L 662.32 1129.47 L 663.60 1132.04 L 664.56 1135.44 L 664.86 1137.85 L 664.86 1140.85 L 664.48 1144.55 L 664.31 1147.48 L 664.61 1150.23 L 665.38 1152.83 L 666.51 1155.33 L 667.93 1157.75 L 669.63 1160.11 L 672.46 1163.47 L 675.46 1166.71 L 678.44 1169.90 L 681.06 1172.95 L 682.62 1175.07 L 683.81 1177.13 L 684.65 1179.15 L 685.54 1182.48 L 686.35 1186.57 L 687.53 1195.40 L 688.28 1204.36 L 688.69 1212.18 L 688.86 1217.57 L 689.12 1219.61 L 689.87 1222.54 L 692.20 1229.15 L 695.03 1236.25 L 697.52 1242.65 L 698.44 1245.40 L 698.86 1247.19 L 698.81 1248.68 L 698.23 1251.93 L 696.03 1260.48 L 692.89 1271.16 L 689.39 1282.35 L 686.14 1292.38 L 683.75 1299.60 L 682.82 1302.38 L 653.52 1407.59 L 671.75 1454.15 Z" fill="#9a9adb" fill-rule="nonzero" node-id="120" stroke-linecap="butt" stroke-width="1" target-height="429.33826" target-width="170.15253" target-x="528.70746" target-y="1087.7217"></path><path d="M 595.25 1577.61 L 592.50 1572.81 L 585.11 1559.68 L 574.34 1540.17 L 561.48 1516.21 L 547.80 1489.72 L 541.02 1476.09 L 534.57 1462.65 L 528.45 1449.32 L 523.07 1436.92 L 518.26 1424.86 L 514.59 1414.48 L 512.52 1407.62 L 511.16 1401.92 L 510.38 1397.24 L 510.26 1393.95 L 510.62 1391.91 L 511.29 1390.71 L 512.21 1390.07 L 513.38 1389.86 L 514.93 1390.06 L 516.98 1390.83 L 519.72 1392.39 L 522.97 1394.70 L 526.87 1397.89 L 531.53 1402.12 L 538.40 1408.91 L 546.25 1417.22 L 554.18 1426.03 L 562.50 1435.63 L 578.91 1455.30 L 594.08 1474.18 L 606.62 1490.20 L 615.16 1501.33 L 618.32 1505.49 L 617.74 1508.44 L 616.21 1515.72 L 614.04 1524.96 L 612.78 1529.66 L 611.54 1533.78 L 610.17 1537.51 L 609.03 1539.81 L 607.82 1542.02 L 606.32 1545.31 L 603.30 1553.07 L 600.32 1561.63 L 597.74 1569.54 L 595.93 1575.35 L 595.25 1577.61 Z" fill="#7574ba" fill-rule="nonzero" node-id="122" stroke-linecap="butt" stroke-width="1" target-height="187.75134" target-width="108.059204" target-x="510.2608" target-y="1389.8586"></path><path d="M 381.20 1440.37 L 381.11 1445.80 L 381.20 1451.70 L 381.64 1460.83 L 382.46 1470.91 L 383.98 1483.54 L 385.31 1492.20 L 387.08 1501.67 L 389.33 1512.01 L 391.92 1522.24 L 395.09 1533.01 L 398.88 1544.35 L 403.13 1555.50 L 408.10 1566.92 L 413.83 1578.63 L 418.48 1587.18 L 423.61 1595.75 L 429.23 1604.33 L 435.38 1612.95 L 445.06 1626.10 L 453.88 1638.56 L 461.89 1650.35 L 469.66 1662.32 L 476.81 1673.91 L 483.37 1685.13 L 489.65 1696.51 L 495.55 1707.84 L 501.07 1719.12 L 506.32 1730.52 L 511.39 1742.19 L 516.27 1754.13 L 523.25 1772.39 L 530.23 1792.01 L 537.04 1812.26 L 544.22 1834.56 L 549.24 1849.66 L 554.03 1862.91 L 558.61 1874.46 L 563.53 1885.90 L 568.11 1895.72 L 572.35 1904.08 L 576.88 1912.31 L 580.94 1919.15 L 584.57 1924.76 L 590.10 1932.53 L 594.38 1937.85 L 598.39 1942.27 L 600.91 1944.71 L 603.28 1946.70 L 684.49 1946.70 L 684.87 1941.38 L 685.09 1935.63 L 685.18 1926.84 L 684.94 1917.15 L 684.20 1905.18 L 683.42 1896.97 L 682.27 1888.10 L 680.72 1878.51 L 678.83 1869.02 L 676.44 1859.17 L 673.51 1848.95 L 670.10 1838.90 L 666.05 1828.79 L 661.34 1818.61 L 657.42 1811.19 L 653.07 1803.89 L 648.27 1796.69 L 643.00 1789.60 L 622.26 1763.31 L 599.14 1733.94 L 574.94 1703.19 L 550.97 1672.76 L 528.55 1644.35 L 508.99 1619.64 L 493.59 1600.35 L 483.68 1588.17 L 474.80 1576.85 L 462.47 1560.14 L 447.97 1539.71 L 432.59 1517.23 L 424.92 1505.70 L 417.59 1494.38 L 410.53 1483.18 L 404.25 1472.83 L 398.45 1462.79 L 393.86 1454.26 L 389.98 1446.20 L 387.68 1440.33 L 386.14 1435.93 L 385.11 1433.99 L 384.31 1433.17 L 383.75 1432.98 L 383.26 1433.21 L 382.63 1434.07 L 382.06 1435.60 L 381.40 1438.78 L 381.20 1440.37 Z" fill="#577a5e" fill-rule="nonzero" node-id="124" stroke-linecap="butt" stroke-width="1" target-height="513.7158" target-width="304.06696" target-x="381.11023" target-y="1432.9841"></path><path d="M 98.97 1429.93 L 100.41 1428.01 L 104.45 1423.32 L 107.25 1420.51 L 110.73 1417.44 L 114.55 1414.57 L 118.85 1411.95 L 121.89 1410.47 L 125.08 1409.30 L 128.42 1408.44 L 131.83 1407.97 L 135.36 1407.98 L 139.06 1408.49 L 153.14 1411.63 L 163.20 1414.01 L 170.63 1415.72 L 176.85 1416.85 L 178.84 1417.32 L 180.86 1418.10 L 182.94 1419.23 L 185.92 1421.27 L 188.90 1423.67 L 194.52 1428.67 L 197.21 1430.98 L 199.57 1432.74 L 202.24 1434.12 L 206.02 1435.40 L 210.14 1436.38 L 214.76 1437.19 L 219.46 1437.79 L 223.99 1438.20 L 231.87 1438.49 L 234.76 1438.72 L 237.54 1439.37 L 240.24 1440.42 L 244.09 1442.55 L 247.79 1445.22 L 251.29 1448.17 L 254.59 1451.19 L 256.88 1453.05 L 259.62 1454.83 L 262.87 1456.52 L 268.02 1458.66 L 273.80 1460.52 L 279.78 1462.02 L 285.87 1463.19 L 290.33 1464.28 L 294.54 1465.93 L 298.52 1467.99 L 302.15 1470.23 L 308.42 1474.67 L 313.06 1477.87 L 314.98 1478.66 L 317.23 1479.11 L 319.88 1479.17 L 323.03 1478.79 L 327.04 1477.79 L 331.50 1476.16 L 336.48 1473.79 L 338.50 1473.02 L 340.86 1472.58 L 343.62 1472.51 L 347.85 1472.95 L 352.49 1473.96 L 357.10 1475.34 L 361.55 1476.96 L 369.30 1480.32 L 374.21 1482.85 L 376.36 1483.83 L 379.57 1484.79 L 383.08 1485.46 L 387.03 1485.87 L 391.03 1485.88 L 394.87 1485.43 L 397.33 1484.83 L 399.48 1483.96 L 401.34 1482.85 L 404.78 1480.32 L 408.10 1478.07 L 411.56 1476.17 L 415.34 1474.73 L 417.98 1474.12 L 421.00 1473.79 L 424.44 1473.79 L 427.79 1473.81 L 432.11 1473.52 L 436.62 1472.95 L 441.52 1472.09 L 446.42 1470.97 L 451.13 1469.61 L 455.62 1467.98 L 459.38 1466.21 L 461.69 1464.80 L 463.44 1463.39 L 464.72 1461.98 L 466.74 1459.57 L 468.84 1457.57 L 471.02 1455.94 L 474.51 1453.90 L 477.91 1452.40 L 484.25 1450.23 L 486.62 1449.14 L 490.46 1446.58 L 493.01 1444.51 L 495.84 1441.82 L 498.97 1438.42 L 501.82 1434.82 L 504.64 1430.61 L 507.40 1425.72 L 509.73 1420.63 L 511.73 1414.91 L 513.36 1408.49 L 514.34 1404.86 L 515.45 1402.30 L 516.65 1400.56 L 518.20 1399.17 L 519.81 1398.35 L 521.54 1398.04 L 523.33 1398.14 L 525.23 1398.59 L 527.24 1399.41 L 530.13 1401.05 L 533.01 1403.13 L 535.71 1405.43 L 538.07 1407.68 L 541.67 1411.53 L 543.04 1413.15 L 541.99 1408.35 L 539.06 1395.32 L 534.62 1376.09 L 529.02 1352.69 L 522.62 1327.17 L 515.77 1301.55 L 512.24 1289.17 L 508.84 1277.87 L 505.35 1267.11 L 502.17 1258.18 L 498.87 1250.06 L 496.12 1244.49 L 493.39 1240.18 L 490.10 1235.93 L 486.20 1231.73 L 481.65 1227.57 L 476.91 1223.82 L 471.62 1220.15 L 465.77 1216.56 L 459.29 1213.05 L 450.52 1208.91 L 440.88 1204.99 L 430.30 1201.31 L 419.58 1198.13 L 408.14 1195.25 L 395.94 1192.70 L 383.67 1190.62 L 370.86 1188.92 L 357.48 1187.61 L 341.41 1186.60 L 328.74 1186.27 L 317.08 1186.48 L 308.08 1187.09 L 299.87 1188.13 L 293.60 1189.31 L 287.88 1190.76 L 283.37 1192.15 L 275.49 1194.84 L 271.85 1195.89 L 268.06 1196.61 L 262.07 1197.23 L 255.66 1197.70 L 249.17 1198.25 L 242.57 1199.13 L 238.21 1200.01 L 233.91 1201.24 L 229.66 1202.85 L 225.61 1204.87 L 221.66 1207.50 L 217.79 1210.78 L 212.76 1215.38 L 207.75 1219.50 L 202.76 1223.16 L 197.59 1226.57 L 192.44 1229.61 L 187.31 1232.32 L 179.45 1235.95 L 171.64 1239.03 L 167.26 1240.93 L 164.13 1242.81 L 161.50 1244.96 L 159.57 1247.04 L 157.96 1249.24 L 156.63 1251.37 L 153.98 1255.48 L 152.38 1257.32 L 150.29 1259.03 L 146.29 1261.44 L 142.40 1263.43 L 138.64 1265.29 L 135.65 1266.99 L 133.91 1268.29 L 132.76 1269.63 L 132.10 1271.03 L 131.74 1272.93 L 131.46 1275.37 L 130.84 1280.66 L 130.28 1283.37 L 129.42 1285.95 L 128.15 1288.29 L 126.36 1290.27 L 122.55 1293.56 L 120.47 1295.75 L 118.07 1298.93 L 115.84 1302.70 L 113.35 1308.13 L 111.14 1314.32 L 108.82 1322.86 L 106.85 1332.35 L 104.91 1344.85 L 101.77 1366.54 L 99.22 1380.72 L 97.19 1389.60 L 95.63 1395.41 L 94.47 1400.38 L 94.07 1403.22 L 93.79 1406.86 L 93.69 1410.66 L 93.78 1414.65 L 94.07 1418.61 L 94.56 1422.16 L 95.33 1425.46 L 96.25 1427.79 L 97.11 1429.06 L 98.00 1429.72 L 98.97 1429.93 Z" fill="#9a9adb" fill-rule="nonzero" node-id="126" stroke-linecap="butt" stroke-width="1" target-height="299.60767" target-width="449.3468" target-x="93.69318" target-y="1186.2697"></path><path d="M 218.82 1336.01 L 221.15 1332.48 L 223.94 1328.80 L 228.72 1323.24 L 232.30 1319.47 L 236.82 1315.17 L 242.41 1310.28 L 248.18 1305.69 L 255.03 1300.81 L 263.07 1295.62 L 271.32 1290.88 L 280.79 1286.09 L 291.60 1281.27 L 299.71 1278.07 L 308.59 1274.99 L 318.28 1272.03 L 328.84 1269.22 L 339.20 1266.88 L 350.42 1264.79 L 362.57 1262.99 L 375.69 1261.49 L 388.49 1260.49 L 402.27 1259.89 L 417.09 1259.75 L 433.00 1260.09 L 448.47 1260.90 L 465.02 1262.30 L 482.73 1264.32 L 501.65 1267.01 L 505.58 1267.81 L 506.84 1272.11 L 510.21 1283.74 L 515.11 1300.84 L 520.94 1321.53 L 527.08 1343.93 L 532.96 1366.16 L 537.98 1386.36 L 540.04 1395.41 L 541.52 1402.63 L 542.62 1409.15 L 543.01 1413.11 L 540.60 1410.00 L 537.68 1406.76 L 532.56 1401.77 L 528.74 1398.41 L 523.84 1394.51 L 517.70 1390.02 L 511.40 1385.83 L 503.83 1381.29 L 494.84 1376.38 L 485.68 1371.88 L 475.04 1367.23 L 462.78 1362.44 L 450.38 1358.17 L 436.28 1353.95 L 420.33 1349.82 L 408.48 1347.16 L 395.58 1344.65 L 381.54 1342.30 L 366.32 1340.14 L 351.47 1338.41 L 335.44 1336.96 L 318.15 1335.82 L 299.54 1335.00 L 281.41 1334.60 L 261.95 1334.62 L 241.11 1335.08 L 218.82 1336.01 Z" fill="#f5d084" fill-rule="nonzero" node-id="128" stroke-linecap="butt" stroke-width="1" target-height="153.3617" target-width="324.19" target-x="218.82" target-y="1259.7483"></path><path d="M 618.32 1505.49 L 616.77 1503.11 L 615.23 1500.51 L 613.13 1496.52 L 611.07 1492.07 L 608.93 1486.56 L 607.13 1480.66 L 605.71 1474.03 L 605.11 1469.49 L 604.87 1464.75 L 604.99 1459.79 L 605.56 1454.87 L 606.66 1449.83 L 608.32 1444.64 L 612.99 1432.55 L 615.73 1425.64 L 617.18 1421.98 L 617.99 1419.64 L 618.82 1416.68 L 620.32 1411.19 L 621.75 1407.11 L 623.24 1404.25 L 624.98 1401.76 L 626.76 1399.65 L 628.55 1397.54 L 630.37 1395.07 L 631.98 1392.23 L 633.58 1388.20 L 634.81 1383.52 L 635.89 1376.72 L 637.40 1365.25 L 638.73 1357.27 L 640.12 1350.41 L 641.06 1346.56 L 642.02 1343.28 L 642.14 1340.71 L 642.58 1334.07 L 643.49 1325.01 L 644.16 1320.08 L 645.00 1315.15 L 646.04 1310.34 L 647.25 1306.11 L 648.77 1302.27 L 650.38 1299.54 L 651.72 1298.11 L 653.08 1297.32 L 654.53 1297.06 L 656.23 1297.46 L 658.01 1298.51 L 659.93 1300.42 L 661.58 1302.62 L 663.26 1305.33 L 664.97 1308.62 L 667.25 1313.73 L 669.37 1319.24 L 671.28 1324.78 L 672.86 1329.83 L 675.15 1337.98 L 675.98 1341.23 L 683.64 1445.91 L 680.38 1448.72 L 671.74 1456.23 L 659.48 1467.05 L 645.33 1479.79 L 631.03 1493.07 L 618.32 1505.49 Z" fill="#7574ba" fill-rule="nonzero" node-id="130" stroke-linecap="butt" stroke-width="1" target-height="208.43005" target-width="78.77026" target-x="604.86975" target-y="1297.0599"></path><path d="M 652.60 1297.49 L 654.12 1298.62 L 655.62 1299.97 L 657.72 1302.27 L 659.76 1305.03 L 661.95 1308.87 L 663.20 1311.64 L 664.34 1314.93 L 665.35 1318.81 L 666.02 1322.74 L 666.41 1327.28 L 666.46 1332.52 L 666.11 1337.72 L 665.26 1343.65 L 663.83 1350.40 L 658.55 1370.97 L 654.74 1385.67 L 653.39 1391.59 L 652.53 1396.31 L 652.05 1400.79 L 652.03 1404.76 L 652.45 1408.67 L 653.37 1412.83 L 654.89 1417.41 L 656.69 1421.36 L 658.75 1424.74 L 661.17 1427.88 L 663.85 1430.74 L 666.78 1433.33 L 671.54 1436.91 L 676.82 1440.41 L 680.32 1442.85 L 683.29 1445.22 L 685.76 1447.54 L 689.10 1451.24 L 691.65 1454.66 L 693.85 1458.09 L 695.59 1461.10 L 696.92 1462.94 L 698.90 1464.92 L 701.68 1467.06 L 704.65 1468.92 L 708.06 1470.72 L 711.95 1472.47 L 717.97 1474.64 L 724.31 1476.29 L 726.85 1477.02 L 729.93 1478.21 L 733.61 1479.98 L 739.07 1482.99 L 745.12 1486.67 L 757.12 1494.62 L 767.91 1502.08 L 775.76 1507.29 L 779.62 1509.43 L 784.24 1511.60 L 789.13 1513.48 L 794.32 1515.02 L 799.60 1516.06 L 804.75 1516.46 L 808.16 1516.31 L 811.33 1515.76 L 814.31 1514.82 L 817.24 1513.83 L 819.99 1513.22 L 822.59 1512.96 L 826.48 1513.05 L 830.20 1513.61 L 833.85 1514.48 L 837.43 1515.50 L 841.00 1516.52 L 844.57 1517.37 L 848.35 1517.90 L 852.90 1518.05 L 857.63 1517.78 L 862.68 1517.02 L 867.70 1515.75 L 872.63 1513.93 L 875.77 1512.38 L 878.71 1510.55 L 881.46 1508.44 L 883.68 1506.82 L 886.08 1505.54 L 888.68 1504.57 L 892.77 1503.60 L 897.04 1503.07 L 901.35 1502.84 L 905.46 1502.77 L 912.84 1502.52 L 915.94 1502.01 L 918.10 1501.16 L 922.66 1498.87 L 927.36 1497.06 L 932.23 1495.72 L 937.21 1494.87 L 942.24 1494.51 L 947.34 1494.65 L 957.96 1495.09 L 962.40 1495.28 L 966.15 1495.70 L 968.52 1496.21 L 970.84 1497.01 L 973.12 1498.10 L 976.58 1499.80 L 979.79 1500.82 L 982.81 1501.23 L 985.06 1501.12 L 987.32 1500.61 L 989.63 1499.66 L 992.02 1498.22 L 993.33 1497.55 L 994.91 1497.14 L 996.83 1497.02 L 999.81 1497.27 L 1003.20 1497.96 L 1010.05 1500.00 L 1016.30 1502.14 L 1019.02 1502.95 L 1020.87 1503.33 L 1025.27 1503.60 L 1026.89 1503.47 L 1028.34 1503.19 L 1031.72 1502.18 L 1033.35 1502.03 L 1035.40 1502.44 L 1037.53 1503.22 L 1039.83 1504.27 L 1044.25 1506.37 L 1046.33 1507.13 L 1047.93 1507.42 L 1050.03 1507.24 L 1052.69 1506.67 L 1055.54 1506.02 L 1059.00 1505.44 L 1062.67 1505.24 L 1067.08 1505.63 L 1071.72 1506.25 L 1076.64 1506.52 L 1081.57 1506.30 L 1086.32 1505.46 L 1089.37 1504.50 L 1092.18 1503.15 L 1094.78 1501.42 L 1098.63 1498.63 L 1102.45 1496.31 L 1106.27 1494.45 L 1110.24 1492.96 L 1113.93 1492.02 L 1117.38 1491.59 L 1119.64 1491.24 L 1121.91 1490.50 L 1124.22 1489.33 L 1127.48 1487.06 L 1130.72 1484.12 L 1133.72 1480.80 L 1136.53 1477.16 L 1138.77 1474.39 L 1141.63 1471.43 L 1144.74 1468.60 L 1148.03 1465.88 L 1151.39 1463.36 L 1154.46 1461.25 L 1157.43 1459.43 L 1159.63 1458.27 L 1160.89 1457.42 L 1162.28 1455.96 L 1163.84 1453.68 L 1165.81 1449.88 L 1167.77 1444.93 L 1169.38 1439.61 L 1170.69 1433.78 L 1171.55 1427.83 L 1171.89 1422.01 L 1171.99 1412.00 L 1172.01 1401.23 L 1171.73 1391.04 L 1171.40 1386.42 L 1170.95 1382.76 L 1170.24 1379.53 L 1169.46 1377.71 L 1168.84 1376.39 L 1168.47 1374.90 L 1168.36 1373.18 L 1168.54 1370.53 L 1169.04 1367.69 L 1170.36 1362.22 L 1170.90 1359.68 L 1171.12 1357.71 L 1170.96 1355.69 L 1170.38 1352.85 L 1168.60 1346.46 L 1166.78 1339.73 L 1166.14 1336.50 L 1165.89 1333.84 L 1165.93 1330.56 L 1166.15 1327.64 L 1167.06 1321.78 L 1168.44 1315.07 L 1168.53 1313.58 L 1168.25 1312.05 L 1167.57 1310.45 L 1166.11 1308.16 L 1164.09 1305.77 L 1159.46 1301.26 L 1155.14 1297.14 L 1153.48 1295.19 L 1152.61 1293.63 L 1151.14 1288.54 L 1149.28 1282.13 L 1148.03 1278.87 L 1146.53 1275.88 L 1145.31 1274.05 L 1143.93 1272.53 L 1142.40 1271.29 L 1137.25 1267.75 L 1130.64 1262.88 L 1123.84 1257.52 L 1118.14 1252.52 L 1115.97 1250.25 L 1114.82 1248.69 L 1113.27 1246.55 L 1111.65 1245.21 L 1109.78 1244.29 L 1107.57 1243.62 L 1102.23 1242.37 L 1096.93 1240.55 L 1089.41 1237.41 L 1081.28 1233.61 L 1074.15 1229.80 L 1071.29 1227.97 L 1069.63 1226.62 L 1068.64 1225.90 L 1067.38 1225.38 L 1065.78 1225.07 L 1063.25 1224.97 L 1060.30 1225.20 L 1054.26 1226.27 L 1048.75 1227.52 L 1044.84 1228.20 L 1042.49 1228.04 L 1039.76 1227.43 L 1033.84 1225.78 L 1030.66 1225.16 L 1027.31 1224.96 L 1024.93 1225.30 L 1020.83 1226.36 L 1010.92 1229.61 L 999.73 1233.58 L 989.40 1237.12 L 984.95 1238.46 L 982.06 1239.12 L 975.60 1240.01 L 972.29 1240.10 L 968.76 1239.77 L 966.42 1239.28 L 963.89 1238.46 L 961.13 1237.27 L 958.51 1235.83 L 955.58 1233.88 L 952.31 1231.33 L 947.21 1227.46 L 941.28 1223.76 L 934.96 1220.50 L 928.35 1217.73 L 923.81 1216.21 L 919.40 1215.04 L 915.08 1214.20 L 910.73 1213.72 L 906.73 1213.70 L 903.04 1214.09 L 898.17 1214.77 L 893.75 1215.11 L 889.75 1215.15 L 883.88 1214.79 L 878.92 1214.09 L 874.27 1213.13 L 870.48 1212.18 L 865.07 1210.88 L 862.27 1210.45 L 859.01 1210.25 L 855.54 1210.38 L 851.15 1210.94 L 846.44 1211.92 L 840.36 1213.58 L 827.41 1217.56 L 814.60 1221.43 L 803.09 1224.53 L 797.97 1225.63 L 794.02 1226.22 L 790.66 1226.38 L 785.53 1226.40 L 779.92 1226.45 L 773.23 1226.71 L 766.32 1227.36 L 759.00 1228.61 L 754.16 1229.84 L 749.40 1231.49 L 744.71 1233.57 L 741.36 1235.44 L 738.17 1237.63 L 735.13 1240.17 L 732.23 1243.07 L 730.35 1242.44 L 725.58 1241.10 L 722.56 1240.44 L 719.21 1239.88 L 715.82 1239.57 L 712.57 1239.60 L 710.45 1239.86 L 708.59 1240.35 L 706.95 1241.07 L 704.61 1242.71 L 701.81 1245.30 L 699.05 1248.28 L 696.10 1251.79 L 690.42 1259.18 L 685.34 1266.07 L 681.42 1271.07 L 677.47 1275.11 L 671.62 1280.59 L 665.05 1286.53 L 658.91 1291.97 L 654.37 1295.95 L 652.60 1297.49 Z" fill="#9a9adb" fill-rule="nonzero" node-id="132" stroke-linecap="butt" stroke-width="1" target-height="307.80347" target-width="519.9786" target-x="652.03094" target-y="1210.2512"></path><g node-id="193"><g clip-path="url(#clip-path)" group-id="1" id="sillyvg_g_0" node-id="134"><path d="M 645.07 1307.31 L 648.67 1310.49 L 658.91 1318.81 L 665.96 1324.13 L 674.92 1330.47 L 684.59 1336.83 L 695.83 1343.64 L 703.61 1347.99 L 711.92 1352.28 L 720.78 1356.50 L 729.78 1360.39 L 739.15 1363.97 L 748.91 1367.24 L 758.81 1370.04 L 768.95 1372.31 L 779.35 1374.05 L 787.20 1374.93 L 795.12 1375.40 L 803.13 1375.46 L 811.24 1375.10 L 819.28 1374.27 L 827.36 1372.92 L 835.50 1371.03 L 843.72 1368.58 L 863.90 1361.57 L 880.74 1355.35 L 896.49 1349.23 L 909.63 1343.92 L 932.45 1334.58 L 942.43 1330.70 L 951.23 1327.62 L 957.02 1325.86 L 962.61 1324.44 L 968.01 1323.34 L 973.47 1322.57 L 979.07 1322.13 L 984.85 1322.03 L 990.63 1322.29 L 996.92 1322.93 L 1003.79 1323.99 L 1009.70 1324.87 L 1013.62 1325.18 L 1016.07 1325.10 L 1017.86 1324.71 L 1018.78 1324.19 L 1019.16 1323.57 L 1019.13 1322.79 L 1018.58 1321.63 L 1017.29 1320.07 L 1014.92 1317.97 L 1010.91 1315.07 L 1005.35 1311.58 L 999.30 1308.15 L 992.38 1304.52 L 985.23 1301.04 L 977.92 1297.73 L 970.63 1294.66 L 963.92 1292.11 L 957.46 1289.95 L 952.31 1288.58 L 945.42 1286.93 L 936.80 1284.63 L 917.74 1279.00 L 897.24 1272.34 L 887.01 1268.79 L 877.41 1265.29 L 868.19 1261.74 L 860.36 1258.51 L 853.21 1255.27 L 848.21 1252.65 L 845.07 1251.18 L 841.26 1249.93 L 836.66 1248.96 L 829.52 1248.05 L 821.32 1247.55 L 812.88 1247.38 L 804.10 1247.39 L 786.95 1247.41 L 778.82 1247.15 L 771.80 1246.56 L 767.26 1245.85 L 763.56 1244.91 L 760.57 1243.78 L 756.30 1241.95 L 751.70 1240.30 L 746.75 1238.83 L 739.25 1237.02 L 731.83 1235.61 L 724.54 1234.50 L 718.21 1233.74 L 708.27 1232.88 L 704.43 1232.67 Z" fill="#f5d084" fill-rule="nonzero" group-id="1" node-id="136" stroke-linecap="butt" stroke-width="1" target-height="142.7915" target-width="374.08936" target-x="645.07" target-y="1232.67"></path></g></g><g node-id="194"><g clip-path="url(#clip-path)" group-id="2" id="sillyvg_g_1" node-id="139"><path d="M 727.12 1241.49 L 730.12 1242.14 L 738.08 1243.82 L 749.41 1246.07 L 762.53 1248.47 L 775.85 1250.57 L 782.23 1251.40 L 787.79 1251.95 L 795.60 1252.36 L 802.37 1252.36 L 815.13 1251.74 L 821.31 1251.40 L 827.80 1251.22 L 834.49 1251.35 L 842.17 1251.95 L 854.21 1253.43 L 871.23 1255.32 L 880.95 1256.15 L 891.64 1256.78 L 902.55 1257.09 L 913.83 1256.98 L 921.39 1256.62 L 928.85 1255.98 L 936.23 1255.06 L 943.55 1253.79 L 950.55 1252.16 L 957.24 1250.18 L 963.75 1247.71 L 969.74 1244.82 L 975.26 1241.49 L 980.46 1237.69 L 984.36 1234.39 L 987.18 1231.52 L 989.67 1228.35 L 991.27 1225.63 L 992.16 1223.29 L 992.60 1220.82 L 992.55 1218.66 L 992.07 1216.72 L 991.21 1214.89 L 990.12 1213.23 L 988.76 1211.75 L 986.45 1209.81 L 984.09 1208.29 L 981.72 1207.05 L 979.93 1206.27 L 978.13 1205.61 L 804.26 1166.49 Z" fill="#7574ba" fill-rule="nonzero" group-id="2" node-id="141" stroke-linecap="butt" stroke-width="1" target-height="90.60217" target-width="265.47583" target-x="727.12006" target-y="1166.49"></path></g></g><path d="M 556.34 1241.74 L 554.06 1243.39 L 547.95 1247.35 L 543.92 1249.68 L 539.12 1252.15 L 534.06 1254.39 L 528.68 1256.31 L 524.99 1257.32 L 521.35 1258.00 L 517.73 1258.36 L 514.13 1258.33 L 510.69 1257.81 L 507.39 1256.82 L 503.89 1255.19 L 500.68 1253.13 L 497.74 1250.62 L 495.05 1247.63 L 492.82 1244.37 L 490.87 1240.54 L 489.20 1236.05 L 487.86 1230.82 L 487.04 1225.71 L 486.58 1219.82 L 486.54 1213.06 L 486.98 1205.33 L 487.81 1198.00 L 489.15 1189.73 L 491.06 1180.46 L 493.61 1170.07 L 496.23 1159.18 L 498.36 1148.42 L 500.02 1137.79 L 501.31 1127.09 L 502.25 1116.81 L 502.86 1106.93 L 503.33 1092.32 L 503.37 1079.28 L 502.81 1056.65 L 502.42 1040.82 L 502.73 1036.92 L 503.46 1033.46 L 504.58 1030.38 L 506.08 1027.46 L 507.80 1024.89 L 509.72 1022.63 L 512.94 1019.66 L 516.17 1017.39 L 519.48 1015.61 L 522.26 1014.51 L 524.86 1013.87 L 526.35 1013.82 L 529.37 1014.09 L 532.30 1013.91 L 535.18 1013.27 L 537.93 1012.20 L 540.47 1010.72 L 542.82 1008.82 L 548.44 1003.33 L 550.96 1000.83 L 553.03 998.99 L 554.47 997.98 L 555.64 997.47 L 556.61 997.33 L 556.89 997.58 L 557.21 998.56 L 557.51 1001.05 L 557.66 1004.94 L 557.66 1010.59 L 557.24 1023.75 L 556.40 1038.35 L 555.28 1052.19 L 554.05 1063.09 L 553.37 1067.13 L 552.87 1068.85 L 553.84 1070.03 L 554.97 1070.95 L 556.26 1071.64 L 557.66 1072.06 L 559.11 1072.21 L 560.63 1072.06 L 562.70 1071.87 L 564.89 1072.07 L 566.96 1072.69 L 568.56 1073.70 L 569.33 1074.61 L 569.73 1075.72 L 569.76 1077.11 L 569.38 1078.47 L 568.42 1080.21 L 566.63 1082.45 L 560.45 1089.40 L 558.42 1092.11 L 557.30 1094.09 L 556.68 1096.01 L 556.63 1097.72 L 557.11 1102.14 L 556.94 1103.80 L 556.26 1104.95 L 554.46 1106.35 L 553.12 1107.13 L 551.51 1107.81 L 549.81 1108.20 L 548.04 1108.18 L 546.90 1107.89 L 545.78 1107.30 L 544.64 1106.35 L 543.49 1105.40 L 542.38 1104.85 L 541.28 1104.64 L 540.17 1104.73 L 539.16 1105.09 L 538.21 1105.73 L 537.13 1107.10 L 536.46 1109.02 L 536.34 1110.42 L 536.52 1112.02 L 537.05 1113.88 L 537.84 1116.42 L 538.81 1120.47 L 540.74 1130.13 L 542.90 1140.79 L 544.12 1145.97 L 545.35 1150.37 L 546.80 1154.32 L 548.15 1156.78 L 549.37 1158.82 L 550.92 1162.10 L 554.09 1170.15 L 557.36 1179.41 L 560.48 1188.35 L 563.17 1195.44 L 564.39 1198.04 L 565.15 1199.16 L 566.41 1200.85 L 567.15 1202.64 L 567.53 1204.47 L 567.63 1205.89 L 567.58 1207.33 L 567.14 1209.70 L 566.06 1215.35 L 564.69 1222.06 L 563.39 1227.62 L 562.74 1229.54 L 561.74 1231.88 L 559.37 1236.51 L 557.26 1240.22 L 556.34 1241.74 Z" fill="#9a9adb" fill-rule="nonzero" node-id="144" stroke-linecap="butt" stroke-width="1" target-height="261.03278" target-width="83.21582" target-x="486.5407" target-y="997.33"></path><path d="M 451.71 172.29 L 451.26 154.70 L 451.23 146.81 L 451.40 140.34 L 451.91 134.42 L 452.69 130.31 L 453.58 127.89 L 454.59 126.44 L 455.71 125.67 L 457.07 125.36 L 458.38 125.39 L 459.67 125.75 L 461.53 126.68 L 463.37 127.91 L 466.82 130.26 L 468.48 130.93 L 469.98 130.93 L 471.31 130.24 L 472.41 129.00 L 473.29 127.46 L 474.07 125.74 L 475.59 122.60 L 476.52 121.49 L 477.57 121.01 L 478.73 121.17 L 480.02 121.91 L 482.76 124.07 L 484.32 125.07 L 486.08 125.72 L 487.30 125.87 L 488.69 125.68 L 490.31 125.09 L 492.32 123.88 L 494.00 122.51 L 495.37 120.98 L 497.04 118.42 L 498.21 115.84 L 499.00 113.21 L 499.44 110.98 L 500.04 108.98 L 501.05 107.45 L 502.46 106.36 L 504.14 105.83 L 505.33 105.82 L 506.60 106.12 L 507.99 106.77 L 509.49 107.84 L 511.24 109.35 L 514.98 112.68 L 517.04 114.25 L 519.20 115.55 L 521.49 116.44 L 523.88 116.77 L 526.18 116.45 L 528.03 115.66 L 529.67 114.51 L 531.10 113.21 L 533.74 110.80 L 535.10 110.02 L 536.58 109.77 L 538.02 110.09 L 539.14 110.81 L 540.07 111.82 L 540.88 112.99 L 542.39 115.24 L 543.25 116.07 L 544.24 116.50 L 545.33 116.43 L 546.47 115.88 L 548.69 114.02 L 550.88 112.15 L 551.98 111.59 L 552.99 111.50 L 553.89 111.98 L 554.76 113.10 L 556.21 116.22 L 557.76 119.43 L 558.75 120.67 L 559.85 121.33 L 561.08 121.39 L 562.35 120.92 L 564.92 119.13 L 566.27 118.17 L 567.63 117.44 L 569.05 117.10 L 570.54 117.33 L 571.80 118.15 L 572.62 119.31 L 573.60 122.20 L 574.07 123.67 L 574.71 124.92 L 575.66 125.86 L 577.18 126.39 L 579.62 126.82 L 582.19 127.64 L 583.78 128.45 L 585.22 129.62 L 586.53 131.17 L 587.46 132.95 L 588.12 135.36 L 588.41 138.58 L 588.67 140.42 L 589.26 141.69 L 590.15 142.52 L 591.97 143.32 L 594.43 143.68 L 599.97 143.85 L 602.83 144.13 L 605.48 144.82 L 607.07 145.60 L 608.46 146.77 L 609.67 148.38 L 610.78 150.73 L 611.58 153.10 L 612.08 155.51 L 612.44 159.16 L 612.47 162.58 L 612.23 168.55 L 612.32 170.95 L 612.73 172.38 L 613.66 173.34 L 615.19 174.00 L 617.00 174.39 L 619.15 174.69 L 623.46 175.45 L 625.41 176.18 L 626.97 177.27 L 628.01 178.67 L 628.38 179.97 L 628.35 181.31 L 628.05 182.68 L 627.30 185.41 L 627.19 186.76 L 627.48 188.13 L 628.41 189.60 L 629.50 190.35 L 631.91 191.15 L 632.92 191.65 L 633.61 192.59 L 633.82 193.98 L 633.60 195.84 L 632.56 199.31 L 631.91 200.92 L 634.29 203.69 L 633.61 211.11 L 613.42 282.40 L 599.64 331.80 L 513.72 310.64 Z" fill="#7574ba" fill-rule="nonzero" node-id="146" stroke-linecap="butt" stroke-width="1" target-height="225.97723" target-width="183.06451" target-x="451.22546" target-y="105.822754"></path><path d="M 570.47 328.99 L 569.99 323.73 L 569.87 319.16 L 570.06 315.21 L 570.59 311.28 L 571.38 307.80 L 572.41 304.71 L 573.75 301.73 L 575.31 298.95 L 577.11 296.36 L 580.17 292.68 L 583.74 289.04 L 587.06 285.57 L 588.99 283.09 L 590.40 280.72 L 591.17 278.89 L 592.36 275.36 L 593.15 273.61 L 594.59 271.42 L 596.86 268.75 L 598.60 267.14 L 600.34 265.88 L 601.85 264.98 L 603.35 264.11 L 604.93 262.99 L 606.32 261.59 L 607.47 259.77 L 608.36 257.45 L 608.91 255.00 L 609.28 251.95 L 609.40 248.19 L 609.54 245.58 L 609.87 243.84 L 610.39 242.33 L 610.97 241.14 L 612.20 238.62 L 612.70 237.10 L 613.10 234.85 L 613.79 228.74 L 614.40 225.92 L 615.47 223.17 L 616.48 221.46 L 617.91 219.66 L 619.87 217.74 L 622.88 215.30 L 624.96 213.83 L 628.31 211.70 L 629.63 210.70 L 630.98 209.31 L 632.15 207.60 L 632.82 206.07 L 633.09 204.66 L 633.02 203.23 L 632.65 202.04 L 631.98 201.02 L 632.95 201.53 L 633.91 202.29 L 635.41 203.94 L 636.89 206.07 L 638.74 209.58 L 640.42 213.73 L 642.29 219.78 L 643.39 224.55 L 644.65 231.35 L 647.02 247.22 L 649.28 264.98 L 651.26 282.23 L 652.82 296.56 L 653.82 305.57 L 655.13 313.05 L 657.98 327.62 L 661.99 347.42 L 666.75 370.59 L 671.87 395.29 L 676.95 419.65 L 681.59 441.83 L 685.40 459.97 L 687.97 472.21 L 688.92 476.70 L 686.37 519.85 L 643.48 530.57 L 614.63 519.57 L 568.42 397.29 Z" fill="#9a9adb" fill-rule="nonzero" node-id="148" stroke-linecap="butt" stroke-width="1" target-height="329.55" target-width="120.5" target-x="568.42" target-y="201.02"></path><path d="M 568.43 397.29 L 614.64 519.59 L 643.49 530.57 L 686.39 519.85 L 688.94 476.70 L 625.40 358.37 L 574.84 344.58 L 568.43 397.29 Z" fill="#7574ba" fill-rule="nonzero" node-id="150" stroke="none" target-height="185.99002" target-width="120.51001" target-x="568.43" target-y="344.58"></path><path d="M 510.40 401.49 L 504.86 400.26 L 499.34 399.68 L 493.82 399.73 L 488.34 400.40 L 483.02 401.67 L 477.82 403.54 L 472.87 405.99 L 468.21 408.99 L 463.82 412.59 L 458.90 417.22 L 452.57 423.57 L 438.01 438.61 L 420.64 456.20 L 411.14 465.40 L 400.95 474.82 L 390.41 484.03 L 379.44 492.97 L 371.92 498.69 L 364.31 504.08 L 356.61 509.14 L 348.72 513.88 L 340.84 518.10 L 332.96 521.82 L 327.67 524.34 L 323.34 526.74 L 319.87 529.04 L 317.12 531.23 L 314.46 533.83 L 312.50 536.27 L 311.12 538.59 L 310.25 540.81 L 309.75 543.21 L 309.65 545.51 L 309.94 547.76 L 310.64 549.99 L 312.04 552.80 L 313.98 555.52 L 316.53 558.19 L 319.37 560.57 L 322.58 562.78 L 326.19 564.83 L 329.94 566.59 L 333.84 568.09 L 337.88 569.32 L 342.00 570.25 L 345.99 570.84 L 349.87 571.09 L 353.75 570.96 L 357.25 570.44 L 360.42 569.55 L 359.97 571.08 L 359.63 572.66 L 359.37 574.79 L 359.37 577.01 L 359.77 579.31 L 360.30 580.77 L 361.13 582.09 L 362.29 583.32 L 363.68 584.25 L 365.56 584.98 L 368.08 585.45 L 379.16 586.64 L 391.46 587.77 L 397.52 588.04 L 402.81 587.98 L 406.26 587.66 L 408.98 587.12 L 411.08 586.40 L 419.08 582.19 L 423.15 580.12 L 427.21 578.52 L 429.97 577.81 L 432.76 577.58 L 435.61 577.80 L 438.48 578.04 L 442.71 577.84 L 447.26 577.22 L 452.53 576.10 L 457.87 574.59 L 463.29 572.61 L 468.52 570.20 L 473.24 567.40 L 476.14 565.24 L 478.59 562.94 L 480.61 560.50 L 485.13 554.36 L 489.07 549.53 L 493.14 545.26 L 497.12 541.87 L 499.93 539.93 L 502.95 538.21 L 506.19 536.71 L 508.16 535.69 L 510.49 534.11 L 513.27 531.86 L 517.27 528.14 L 521.68 523.63 L 530.33 513.99 L 538.11 504.91 L 543.93 498.34 L 546.90 495.41 L 550.34 492.36 L 553.99 489.49 L 557.72 486.98 L 561.55 484.91 L 565.05 483.60 L 567.41 483.13 L 569.48 483.15 L 571.32 483.59 L 569.28 480.09 L 563.46 470.57 L 554.27 456.49 L 548.66 448.38 L 542.10 439.31 L 535.11 430.13 L 527.35 420.49 L 519.16 410.96 L 510.40 401.49 Z" fill="#9a9adb" fill-rule="nonzero" node-id="152" stroke-linecap="butt" stroke-width="1" target-height="188.3648" target-width="261.6715" target-x="309.6485" target-y="399.67938"></path><path d="M 326.57 524.90 L 321.79 527.74 L 318.06 530.42 L 315.24 532.95 L 313.18 535.34 L 311.39 538.13 L 310.27 540.76 L 309.71 543.27 L 309.67 545.70 L 310.07 548.15 L 310.87 550.54 L 312.09 552.88 L 313.75 555.22 L 316.36 558.00 L 319.47 560.64 L 323.16 563.12 L 327.07 565.26 L 331.21 567.10 L 335.59 568.65 L 340.09 569.85 L 344.48 570.65 L 348.78 571.05 L 353.08 571.02 L 356.94 570.50 L 360.42 569.55 L 359.97 571.08 L 359.63 572.66 L 359.37 574.79 L 359.37 577.01 L 359.77 579.31 L 360.30 580.77 L 361.13 582.09 L 362.29 583.32 L 363.68 584.25 L 365.56 584.98 L 368.08 585.45 L 379.16 586.64 L 391.46 587.77 L 397.52 588.04 L 402.81 587.98 L 406.26 587.66 L 408.98 587.12 L 411.08 586.40 L 419.08 582.19 L 423.15 580.12 L 427.21 578.52 L 429.97 577.81 L 432.76 577.58 L 435.61 577.80 L 438.48 578.04 L 442.71 577.84 L 447.26 577.22 L 452.53 576.10 L 457.87 574.59 L 463.29 572.61 L 468.52 570.20 L 473.24 567.40 L 476.14 565.24 L 478.59 562.94 L 480.61 560.50 L 485.13 554.36 L 489.07 549.53 L 493.14 545.26 L 497.12 541.87 L 499.93 539.93 L 502.95 538.21 L 506.19 536.71 L 508.16 535.69 L 510.49 534.11 L 513.27 531.86 L 517.27 528.14 L 521.68 523.63 L 530.33 513.99 L 538.11 504.91 L 543.93 498.34 L 546.90 495.41 L 550.34 492.36 L 553.99 489.49 L 557.72 486.98 L 561.55 484.91 L 565.05 483.60 L 567.41 483.13 L 569.48 483.15 L 571.32 483.59 L 567.01 482.95 L 555.32 481.48 L 538.08 479.87 L 528.13 479.23 L 517.15 478.81 L 505.93 478.70 L 494.37 478.99 L 482.82 479.76 L 471.58 481.09 L 464.18 482.36 L 457.20 483.94 L 450.64 485.81 L 444.23 488.14 L 438.50 490.82 L 433.38 493.84 L 426.37 498.19 L 419.21 502.06 L 411.89 505.46 L 404.40 508.48 L 397.02 511.09 L 389.75 513.31 L 378.87 516.10 L 368.89 518.14 L 359.27 519.68 L 351.22 520.67 L 343.81 521.34 L 338.66 521.66 L 334.46 522.14 L 330.45 523.22 L 326.57 524.90 Z" fill="#7574ba" fill-rule="nonzero" node-id="154" stroke-linecap="butt" stroke-width="1" target-height="109.34552" target-width="261.6543" target-x="309.6657" target-y="478.69867"></path><path d="M 919.90 428.07 L 921.91 426.16 L 924.32 424.24 L 928.57 421.37 L 933.62 418.51 L 940.86 415.12 L 946.04 413.07 L 952.28 410.97 L 959.74 408.82 L 967.25 407.04 L 976.02 405.38 L 986.18 403.90 L 996.34 402.83 L 1007.95 402.10 L 1021.13 401.75 L 1034.28 401.88 L 1049.05 402.54 L 1065.58 403.81 L 1069.19 405.98 L 1073.23 408.12 L 1079.68 411.12 L 1086.99 414.03 L 1096.50 417.16 L 1103.16 418.96 L 1110.68 420.60 L 1119.13 422.04 L 1127.61 423.05 L 1136.89 423.62 L 1147.04 423.72 L 1154.55 423.42 L 1162.47 422.74 L 1170.85 421.64 L 1179.69 420.11 L 1182.36 422.14 L 1185.26 424.15 L 1189.59 426.85 L 1194.41 429.48 L 1200.21 432.12 L 1204.26 433.64 L 1208.53 434.89 L 1213.04 435.87 L 1219.62 437.27 L 1225.29 438.96 L 1230.60 440.93 L 1235.10 442.86 L 1242.74 446.42 L 1245.98 447.74 L 1248.49 448.44 L 1250.79 448.71 L 1254.62 448.88 L 1258.83 448.86 L 1263.81 448.61 L 1268.91 448.09 L 1274.02 447.28 L 1278.95 446.09 L 1283.18 444.57 L 1285.78 443.23 L 1287.77 441.76 L 1289.25 440.15 L 1295.69 431.24 L 1298.98 427.02 L 1302.14 423.34 L 1305.43 420.09 L 1308.47 417.77 L 1310.41 416.31 L 1311.86 414.84 L 1312.89 413.37 L 1313.95 410.96 L 1314.38 408.69 L 1314.34 406.47 L 1313.97 404.63 L 1313.63 402.79 L 1313.64 400.63 L 1313.99 398.44 L 1314.69 396.27 L 1315.76 394.29 L 1317.18 392.63 L 1318.18 391.25 L 1318.77 389.27 L 1318.82 387.85 L 1318.54 386.42 L 1317.89 384.94 L 1316.91 383.70 L 1315.42 382.61 L 1313.28 381.68 L 1310.98 381.20 L 1307.86 381.10 L 1303.68 381.52 L 1300.30 381.87 L 1295.49 381.85 L 1288.88 381.29 L 1282.38 380.31 L 1274.40 378.63 L 1264.70 376.12 L 1255.17 373.19 L 1244.13 369.27 L 1231.43 364.23 L 1218.95 358.75 L 1204.97 352.01 L 1189.34 343.86 L 1174.02 335.25 L 1157.18 325.09 L 1138.73 313.23 L 1128.70 306.80 L 1119.36 301.23 L 1110.68 296.44 L 1102.62 292.38 L 1094.11 288.51 L 1086.19 285.30 L 1078.83 282.71 L 1071.98 280.67 L 1064.82 278.94 L 1058.12 277.69 L 1051.87 276.88 L 1046.01 276.49 L 1038.08 276.51 L 1030.73 277.10 L 1023.90 278.23 L 1017.17 279.87 L 1010.82 281.89 L 1004.83 284.26 L 996.15 288.41 L 988.00 292.98 L 980.13 297.87 L 972.60 302.77 L 967.68 306.20 L 962.56 310.14 L 957.21 314.62 L 949.44 321.72 L 941.61 329.45 L 933.99 337.46 L 926.72 345.50 L 919.74 353.56 L 913.50 361.03 L 902.89 374.29 L 895.83 383.52 L 893.27 386.99 Z" fill="#9a9adb" fill-rule="nonzero" node-id="156" stroke-linecap="butt" stroke-width="1" target-height="172.39279" target-width="425.5528" target-x="893.26996" target-y="276.4916"></path><path d="M 1303.68 381.49 L 1307.86 381.07 L 1310.98 381.17 L 1313.28 381.65 L 1315.42 382.57 L 1316.91 383.66 L 1317.89 384.90 L 1318.54 386.37 L 1318.82 387.80 L 1318.77 389.23 L 1318.18 391.21 L 1317.18 392.60 L 1315.76 394.27 L 1314.69 396.26 L 1313.99 398.43 L 1313.64 400.61 L 1313.63 402.77 L 1313.97 404.60 L 1314.34 406.44 L 1314.38 408.66 L 1313.95 410.92 L 1312.88 413.34 L 1311.85 414.81 L 1310.41 416.28 L 1308.47 417.74 L 1305.44 420.06 L 1302.14 423.32 L 1298.98 426.99 L 1295.69 431.22 L 1289.25 440.12 L 1287.77 441.73 L 1285.78 443.20 L 1283.19 444.53 L 1278.96 446.05 L 1274.02 447.24 L 1268.91 448.06 L 1263.82 448.57 L 1258.83 448.82 L 1254.62 448.85 L 1250.79 448.68 L 1248.49 448.41 L 1245.98 447.72 L 1242.74 446.39 L 1235.10 442.84 L 1230.60 440.91 L 1225.29 438.93 L 1219.62 437.25 L 1213.04 435.84 L 1208.53 434.86 L 1204.26 433.61 L 1200.21 432.09 L 1194.41 429.44 L 1189.59 426.81 L 1185.26 424.12 L 1182.36 422.11 L 1179.69 420.08 L 1184.33 419.73 L 1196.83 418.39 L 1205.07 417.25 L 1215.09 415.61 L 1225.54 413.59 L 1237.02 410.97 L 1248.62 407.84 L 1260.49 404.03 L 1268.33 401.13 L 1275.97 397.90 L 1283.41 394.35 L 1290.65 390.40 L 1297.39 386.12 L 1303.68 381.49 Z" fill="#7574ba" fill-rule="nonzero" node-id="158" stroke-linecap="butt" stroke-width="1" target-height="67.77826" target-width="139.13306" target-x="1179.69" target-y="381.07135"></path><g clip-path="url(#clip-path-3)" group-id="3" id="sillyvg_g_2" node-id="160"><path d="M 908.89 386.09 L 913.08 382.90 L 924.98 374.46 L 933.16 369.03 L 943.57 362.50 L 954.79 355.90 L 967.84 348.75 L 976.84 344.13 L 986.48 339.52 L 996.77 334.91 L 1007.17 330.61 L 1018.02 326.54 L 1029.33 322.72 L 1040.78 319.32 L 1052.50 316.38 L 1064.53 313.89 L 1073.61 312.40 L 1082.76 311.28 L 1092.00 310.53 L 1101.33 310.15 L 1110.65 310.19 L 1119.98 310.72 L 1129.33 311.72 L 1138.73 313.21 L 1148.12 314.83 L 1155.05 315.75 L 1160.01 316.16 L 1164.02 316.19 L 1166.63 315.92 L 1168.23 315.48 L 1169.13 314.94 L 1169.70 314.15 L 1169.79 313.22 L 1169.33 311.99 L 1168.05 310.30 L 1166.03 308.35 L 1163.02 305.94 L 1158.75 302.98 L 1151.91 298.72 L 1143.17 293.73 L 1133.84 288.71 L 1123.30 283.29 L 1101.09 272.42 L 1078.52 261.85 L 1057.53 252.33 L 1040.11 244.61 L 1028.22 239.43 L 1023.82 237.54 L 901.15 329.03 Z" fill="#f5d084" fill-rule="nonzero" group-id="3" node-id="162" stroke-linecap="butt" stroke-width="1" target-height="148.54999" target-width="268.63568" target-x="901.14996" target-y="237.54001"></path></g><g clip-path="url(#clip-path-4)" group-id="4" id="sillyvg_g_3" node-id="165"><path d="M 460.36 410.18 L 458.03 412.05 L 452.06 416.89 L 443.96 423.55 L 435.25 430.87 L 427.45 437.71 L 422.08 442.92 L 420.86 444.41 L 420.56 445.07 L 420.65 445.34 L 421.65 445.30 L 425.58 444.22 L 437.11 440.47 L 453.51 435.45 L 462.86 432.93 L 473.03 430.54 L 483.41 428.55 L 493.95 427.08 L 501.01 426.48 L 507.86 426.27 L 514.51 426.45 L 521.12 427.11 L 527.26 428.30 L 533.00 430.00 L 537.47 431.44 L 540.28 432.07 L 541.94 432.17 L 543.04 431.94 L 543.60 431.51 L 543.80 430.89 L 543.62 429.93 L 542.97 428.60 L 541.74 426.80 L 539.70 424.39 L 536.32 420.89 L 531.85 416.67 L 521.70 407.86 L 510.93 399.09 L 501.18 391.44 L 494.12 386.05 L 491.40 384.00 Z" fill="#f5d084" fill-rule="nonzero" group-id="4" node-id="167" stroke-linecap="butt" stroke-width="1" target-height="61.339996" target-width="123.23712" target-x="420.56317" target-y="384"></path></g><path d="M 739.96 524.60 L 738.84 521.38 L 737.86 517.68 L 736.65 511.38 L 735.76 504.16 L 735.19 494.14 L 735.15 487.13 L 735.47 478.86 L 736.22 469.16 L 737.35 459.53 L 739.09 448.52 L 741.53 435.97 L 749.20 399.14 L 756.20 364.84 L 759.55 348.92 L 762.64 335.02 L 765.79 321.96 L 768.63 311.62 L 770.72 305.04 L 772.60 300.13 L 774.28 296.57 L 779.97 285.65 L 784.26 277.28 L 786.36 273.53 L 788.74 269.69 L 791.42 265.80 L 794.96 261.14 L 799.61 255.41 L 802.06 252.34 L 802.79 251.19 L 803.36 249.99 L 804.54 246.44 L 806.64 239.76 L 810.29 227.94 L 812.23 221.69 L 814.39 215.25 L 816.82 208.87 L 819.60 202.57 L 822.82 196.50 L 826.55 190.76 L 829.02 186.90 L 831.11 182.85 L 832.82 178.59 L 834.80 172.06 L 836.11 165.76 L 836.90 159.60 L 837.23 154.47 L 837.23 149.80 L 837.02 146.95 L 835.22 145.13 L 833.43 143.04 L 830.89 139.61 L 828.40 135.63 L 825.67 130.29 L 824.07 126.49 L 822.56 122.10 L 821.17 117.05 L 820.14 111.96 L 819.41 106.23 L 819.02 99.81 L 818.51 87.89 L 817.70 77.22 L 815.87 58.75 L 815.24 51.15 L 815.12 46.02 L 815.33 43.51 L 815.77 41.97 L 816.34 41.08 L 817.02 40.64 L 817.94 40.64 L 818.92 41.13 L 820.03 42.32 L 821.45 44.57 L 822.97 47.76 L 825.66 54.84 L 827.94 61.42 L 828.98 64.06 L 829.66 65.35 L 830.60 66.16 L 831.48 66.22 L 832.39 65.81 L 833.42 64.95 L 835.39 62.80 L 836.40 61.76 L 837.30 61.04 L 838.53 60.46 L 839.63 60.21 L 841.84 60.16 L 844.16 59.94 L 846.50 58.87 L 848.58 57.41 L 850.37 55.61 L 851.82 53.49 L 853.63 49.73 L 854.32 48.83 L 855.19 48.25 L 856.27 47.94 L 857.09 48.14 L 858.57 49.03 L 862.09 51.85 L 866.15 55.31 L 870.10 58.31 L 871.94 59.35 L 873.27 59.76 L 874.06 59.69 L 874.80 59.34 L 875.51 58.65 L 876.41 57.33 L 877.30 55.56 L 878.92 51.73 L 879.78 49.89 L 880.64 48.45 L 881.68 47.38 L 882.75 46.98 L 884.14 47.22 L 885.39 48.00 L 886.49 49.12 L 887.53 50.46 L 889.47 52.93 L 890.50 53.74 L 891.51 53.98 L 892.91 53.51 L 894.44 52.35 L 897.33 49.41 L 898.81 48.13 L 900.08 47.52 L 901.16 47.64 L 902.83 48.47 L 906.52 51.08 L 910.20 53.73 L 911.88 54.61 L 912.95 54.79 L 913.77 54.40 L 914.37 53.52 L 914.76 52.37 L 915.09 50.94 L 915.74 48.03 L 916.25 46.74 L 916.95 45.79 L 917.81 45.22 L 919.06 44.79 L 920.82 44.55 L 923.58 44.68 L 927.01 45.43 L 929.29 46.24 L 931.68 47.41 L 934.19 48.95 L 937.85 51.25 L 941.09 52.80 L 943.29 53.51 L 945.16 53.77 L 946.76 53.68 L 948.21 53.16 L 949.40 52.18 L 950.37 50.63 L 951.71 48.07 L 953.33 45.82 L 955.20 43.86 L 957.09 42.38 L 959.07 41.32 L 960.81 40.86 L 961.56 40.61 L 962.16 40.11 L 962.65 39.30 L 963.16 37.87 L 963.58 36.05 L 964.46 32.37 L 965.18 30.73 L 966.17 29.52 L 967.48 28.66 L 970.17 27.32 L 973.26 26.02 L 977.07 24.67 L 981.05 23.52 L 985.04 22.67 L 988.97 22.26 L 992.24 22.44 L 994.23 22.96 L 995.72 23.84 L 996.81 25.06 L 998.45 28.28 L 1000.53 33.72 L 1002.35 39.93 L 1004.09 48.10 L 1004.96 53.79 L 1005.60 60.19 L 1005.99 67.38 L 1006.01 74.54 L 1005.61 82.31 L 1004.75 90.74 L 1003.49 99.33 L 1001.85 108.82 L 998.03 128.40 L 993.95 147.71 L 990.31 165.01 L 987.78 178.55 L 987.11 183.78 L 987.04 186.58 L 987.48 194.28 L 987.88 208.13 L 987.84 226.33 L 987.53 236.39 L 986.94 247.08 L 986.05 257.85 L 984.80 268.58 L 983.12 279.14 L 981.01 289.01 L 979.27 295.45 L 977.31 301.29 L 975.17 306.58 L 863.43 554.58 Z" fill="#7574ba" fill-rule="nonzero" node-id="170" stroke-linecap="butt" stroke-width="1" target-height="532.3168" target-width="270.86572" target-x="735.14825" target-y="22.263216"></path><path d="M 996.82 25.90 L 998.46 29.12 L 1000.54 34.56 L 1002.35 40.77 L 1004.09 48.94 L 1004.97 54.63 L 1005.61 61.03 L 1006.00 68.22 L 1006.02 75.38 L 1005.62 83.15 L 1004.76 91.58 L 1003.50 100.17 L 1001.86 109.66 L 998.04 129.24 L 993.96 148.55 L 990.32 165.85 L 987.79 179.39 L 987.12 184.62 L 987.05 187.42 L 987.49 195.12 L 987.89 208.97 L 987.85 227.17 L 987.54 237.23 L 986.95 247.92 L 986.07 258.69 L 984.81 269.42 L 983.13 279.98 L 981.02 289.85 L 979.28 296.29 L 977.32 302.13 L 975.18 307.42 L 949.37 364.70 L 949.92 360.77 L 951.19 350.20 L 952.61 334.82 L 953.20 326.04 L 953.63 316.48 L 953.81 306.79 L 953.68 297.01 L 953.15 287.33 L 952.19 278.25 L 951.23 272.28 L 950.03 266.89 L 948.61 262.02 L 946.78 257.30 L 944.69 253.39 L 942.37 250.17 L 936.58 243.31 L 932.69 238.45 L 929.47 234.05 L 927.61 231.04 L 926.35 228.24 L 925.86 226.14 L 925.84 224.08 L 926.17 221.95 L 927.24 216.66 L 927.48 214.00 L 927.36 211.91 L 926.98 210.28 L 925.92 208.05 L 924.56 206.37 L 921.43 203.68 L 920.02 202.38 L 919.01 200.96 L 918.76 199.90 L 918.91 198.69 L 919.53 197.25 L 920.87 195.14 L 922.68 192.76 L 924.54 190.35 L 926.14 187.98 L 927.00 186.33 L 927.46 184.82 L 927.56 183.41 L 927.68 181.37 L 928.29 179.62 L 929.24 178.01 L 930.40 176.45 L 932.66 173.28 L 933.45 171.53 L 933.82 169.49 L 933.68 167.50 L 933.25 166.10 L 932.12 163.84 L 931.79 162.81 L 931.87 161.62 L 932.42 160.36 L 933.95 158.38 L 935.87 156.49 L 937.68 155.01 L 941.10 152.40 L 942.55 151.03 L 943.75 149.42 L 944.62 147.54 L 945.18 144.98 L 945.33 142.25 L 945.26 139.61 L 945.19 136.97 L 945.35 134.19 L 945.93 131.38 L 947.24 128.11 L 948.45 126.00 L 950.23 123.56 L 952.71 120.73 L 961.42 112.03 L 966.09 107.31 L 970.81 102.17 L 975.24 96.71 L 979.28 90.80 L 981.63 86.64 L 983.62 82.24 L 985.26 77.58 L 986.91 71.64 L 988.62 64.90 L 991.75 51.17 L 994.37 38.61 L 996.16 29.45 L 996.82 25.90 Z" fill="#9a9adb" fill-rule="nonzero" node-id="172" stroke-linecap="butt" stroke-width="1" target-height="338.8" target-width="87.26172" target-x="918.76166" target-y="25.9"></path><g clip-path="url(#clip-path-5)" group-id="5" id="sillyvg_g_4" node-id="174"><path d="M 836.70 145.10 L 838.84 146.81 L 844.32 151.34 L 851.71 157.82 L 859.59 165.38 L 863.33 169.35 L 866.54 173.13 L 869.31 176.95 L 871.12 180.20 L 871.93 182.41 L 872.16 184.21 L 871.93 185.70 L 870.54 189.22 L 869.51 191.32 L 867.77 194.02 L 867.18 194.92 L 866.82 195.84 L 866.67 196.91 L 866.76 198.81 L 866.78 202.22 L 866.37 205.53 L 865.52 208.77 L 864.26 211.87 L 862.60 214.76 L 860.54 217.48 L 858.54 220.06 L 857.79 221.75 L 857.71 222.78 L 857.98 223.41 L 858.57 223.78 L 859.34 223.87 L 860.46 223.64 L 862.07 222.94 L 865.51 221.24 L 868.25 220.25 L 870.04 219.95 L 871.29 220.11 L 872.18 220.64 L 872.48 221.23 L 872.50 221.97 L 872.17 222.94 L 870.32 226.00 L 869.31 227.58 L 868.68 228.88 L 868.55 230.10 L 868.94 231.19 L 869.75 232.14 L 870.97 232.98 L 872.40 233.57 L 874.04 233.95 L 874.90 234.30 L 875.25 234.86 L 875.17 235.75 L 874.47 237.29 L 873.01 239.37 L 869.35 243.53 L 868.25 244.92 L 867.58 246.21 L 867.26 247.41 L 867.15 249.33 L 867.32 251.46 L 867.53 253.68 L 867.53 256.36 L 867.18 258.55 L 866.38 261.23 L 865.30 263.93 L 863.96 266.65 L 862.45 269.21 L 860.93 271.32 L 859.30 273.07 L 857.96 273.97 L 856.66 274.78 L 854.08 276.90 L 851.32 279.55 L 847.92 283.23 L 844.57 287.34 L 841.15 292.18 L 838.07 297.37 L 835.45 302.95 L 834.06 306.83 L 833.08 310.76 L 832.49 314.76 L 831.95 324.49 L 832.01 332.42 L 832.56 339.84 L 833.41 345.87 L 834.55 351.49 L 835.74 356.12 L 836.05 357.94 L 836.07 359.84 L 835.78 361.83 L 834.98 364.80 L 833.82 367.85 L 831.20 373.69 L 830.04 376.47 L 829.29 378.87 L 829.02 380.46 L 829.08 381.79 L 829.42 382.93 L 830.08 383.88 L 830.89 384.51 L 831.85 384.86 L 833.49 385.01 L 835.38 384.81 L 839.17 384.03 L 840.97 383.75 L 842.38 383.76 L 843.19 383.99 L 843.77 384.46 L 844.17 385.23 L 844.42 387.25 L 844.18 390.65 L 843.49 394.36 L 842.26 398.85 L 840.61 403.40 L 838.46 408.09 L 835.87 412.57 L 832.87 416.63 L 830.92 419.27 L 829.47 421.87 L 828.46 424.44 L 827.48 428.44 L 827.05 432.40 L 826.97 440.19 L 826.90 443.95 L 826.55 447.46 L 825.39 454.98 L 823.24 468.15 L 820.13 484.68 L 818.24 493.50 L 816.12 502.31 L 813.75 510.95 L 811.24 518.76 L 809.33 523.82 L 807.42 528.12 L 805.52 531.74 L 803.26 535.14 L 801.10 537.48 L 799.01 538.98 L 796.21 540.12 L 793.01 540.90 L 789.32 541.28 L 783.66 541.23 L 777.50 540.55 L 771.33 539.40 L 765.29 537.94 L 759.45 536.26 L 754.42 534.62 L 746.62 531.78 L 743.64 530.57 L 741.40 529.45 L 735.79 526.62 L 728.51 522.91 L 721.23 519.14 L 715.62 516.12 L 713.71 514.97 L 713.38 514.68 L 713.93 509.89 L 715.39 497.49 L 717.50 479.64 L 720.01 458.51 L 722.65 436.28 L 725.16 415.11 L 727.27 397.17 L 728.73 384.64 L 729.28 379.68 L 730.98 374.96 L 735.54 363.07 L 742.14 346.07 L 749.96 326.03 L 758.19 305.00 L 766.01 285.06 L 772.61 268.26 L 777.17 256.66 L 778.87 252.34 Z" fill="#9a9adb" fill-rule="nonzero" group-id="5" node-id="176" stroke-linecap="butt" stroke-width="1" target-height="396.1841" target-width="161.87128" target-x="713.38" target-y="145.1"></path></g><path d="M 602.87 545.86 L 601.23 542.74 L 596.86 534.47 L 590.58 522.68 L 583.23 509.00 L 575.64 495.05 L 568.62 482.46 L 563.00 472.87 L 553.59 457.69 L 547.99 449.05 L 541.39 439.36 L 534.27 429.54 L 526.09 419.04 L 520.35 412.12 L 514.13 405.07 L 507.40 397.87 L 496.92 387.22 L 488.36 378.36 L 484.55 374.06 L 480.91 369.56 L 477.43 364.76 L 473.78 359.10 L 470.21 352.95 L 466.16 345.27 L 462.08 336.89 L 457.25 326.34 L 452.25 314.88 L 446.25 300.59 L 442.25 290.30 L 438.66 279.99 L 435.50 269.65 L 432.67 259.20 L 430.21 249.03 L 428.12 239.12 L 425.49 224.39 L 423.55 210.97 L 422.10 198.05 L 421.21 187.14 L 420.67 177.01 L 420.51 169.59 L 420.62 163.21 L 420.88 160.28 L 421.63 157.35 L 422.62 155.23 L 423.80 153.73 L 425.31 152.55 L 426.84 151.86 L 428.41 151.59 L 430.01 151.70 L 431.43 152.12 L 432.71 152.86 L 433.58 153.34 L 434.06 153.35 L 434.35 153.06 L 434.57 152.17 L 434.56 150.47 L 434.19 146.28 L 434.04 143.93 L 434.05 141.65 L 434.39 139.74 L 435.07 138.49 L 436.05 137.72 L 437.27 137.44 L 438.97 137.70 L 441.38 138.77 L 443.60 140.23 L 446.45 142.62 L 450.05 146.20 L 457.21 153.73 L 463.68 160.31 L 470.25 166.84 L 477.72 174.27 L 480.04 176.78 L 483.97 181.40 L 493.74 193.55 L 505.79 209.13 L 518.89 226.55 L 531.81 244.21 L 543.31 260.53 L 548.31 267.94 L 552.16 273.92 L 555.41 279.39 L 557.13 282.78 L 558.78 287.19 L 560.54 293.17 L 562.14 299.60 L 563.75 306.94 L 566.73 322.28 L 569.45 337.36 L 571.88 350.36 L 573.04 355.80 L 573.98 359.47 L 575.66 364.34 L 577.75 369.10 L 580.13 373.70 L 582.61 377.96 L 587.53 385.47 L 591.50 391.07 L 592.86 393.33 L 593.89 395.81 L 594.59 398.54 L 594.95 401.56 L 594.93 405.59 L 594.42 410.39 L 593.32 416.07 L 592.90 418.91 L 592.86 421.50 L 593.17 423.89 L 594.18 427.32 L 595.66 430.32 L 597.51 433.04 L 599.45 435.30 L 601.49 437.28 L 603.21 438.73 L 604.51 440.00 L 607.09 443.11 L 609.86 446.89 L 613.37 452.17 L 616.88 458.00 L 620.66 465.01 L 624.18 472.47 L 627.52 480.77 L 629.46 486.47 L 631.13 492.40 L 632.54 498.54 L 633.56 504.76 L 634.15 511.06 L 634.30 517.46 L 634.30 518.46 L 632.67 520.35 L 628.39 525.12 L 622.38 531.39 L 615.56 537.83 L 612.05 540.74 L 608.84 543.05 L 605.65 544.86 L 603.15 545.71" fill="#9a9adb" fill-rule="nonzero" node-id="179" stroke-linecap="butt" stroke-width="1" target-height="408.41962" target-width="213.79205" target-x="420.50793" target-y="137.44035"></path><path d="M 739.96 524.60 L 738.19 517.97 L 736.86 511.14 L 735.97 504.11 L 735.47 497.02 L 735.29 489.96 L 735.43 482.89 L 736.09 472.40 L 737.16 462.48 L 738.54 452.85 L 740.00 444.37 L 742.78 430.10 L 745.15 418.46 L 748.56 402.06 L 752.50 383.29 L 756.46 364.53 L 759.91 348.18 L 762.36 336.61 L 763.29 332.23 L 762.93 329.52 L 762.30 327.06 L 761.42 324.81 L 759.71 321.68 L 757.84 319.16 L 755.78 317.02 L 754.04 315.62 L 752.35 314.67 L 751.49 314.51 L 749.15 314.89 L 747.80 314.80 L 746.34 314.21 L 745.50 313.54 L 744.62 312.39 L 743.70 310.61 L 742.71 308.89 L 741.64 307.76 L 740.47 307.09 L 738.51 306.66 L 736.65 306.85 L 734.98 307.51 L 733.93 308.31 L 732.67 309.45 L 731.56 309.88 L 730.86 309.81 L 730.07 309.33 L 729.15 308.25 L 728.31 307.16 L 727.44 306.53 L 726.35 306.30 L 724.45 306.52 L 722.17 307.17 L 718.36 308.51 L 716.66 308.94 L 714.72 309.11 L 712.48 308.97 L 709.10 308.36 L 705.42 307.28 L 701.77 305.90 L 698.22 304.32 L 694.81 302.60 L 691.91 300.98 L 687.53 298.17 L 685.76 297.08 L 684.15 296.42 L 682.66 296.12 L 680.42 296.21 L 678.37 296.89 L 676.50 298.05 L 674.80 299.59 L 673.40 300.86 L 671.24 302.36 L 668.76 303.65 L 665.83 304.71 L 662.71 305.28 L 659.39 305.24 L 657.20 304.81 L 655.00 303.94 L 652.73 302.59 L 650.25 300.99 L 647.99 299.86 L 645.92 299.12 L 642.80 298.50 L 640.19 298.48 L 637.78 298.90 L 635.97 299.59 L 634.19 300.37 L 632.03 301.06 L 629.75 301.47 L 627.35 301.48 L 625.78 301.21 L 624.24 300.65 L 622.71 299.78 L 620.64 298.05 L 618.69 296.10 L 616.76 294.16 L 614.79 292.49 L 613.38 291.60 L 611.85 291.01 L 610.17 290.73 L 608.28 290.94 L 606.51 291.66 L 604.84 292.71 L 603.19 294.01 L 599.88 296.61 L 598.11 297.64 L 596.24 298.29 L 593.51 298.52 L 590.41 298.17 L 587.33 297.33 L 584.41 296.09 L 581.77 294.48 L 579.82 292.74 L 578.72 291.13 L 577.74 288.97 L 576.08 284.18 L 575.19 281.78 L 574.20 279.71 L 572.94 277.97 L 571.44 276.89 L 569.86 276.45 L 568.21 276.43 L 566.44 276.84 L 564.75 277.59 L 563.15 278.64 L 561.65 280.01 L 560.37 281.59 L 559.41 283.32 L 558.75 285.22 L 558.04 287.51 L 556.86 290.23 L 555.41 292.91 L 553.71 295.46 L 551.80 297.73 L 549.93 299.35 L 548.57 300.12 L 547.33 300.43 L 546.16 300.35 L 543.76 299.88 L 541.61 299.88 L 539.63 300.28 L 537.85 301.14 L 536.22 302.56 L 534.72 304.66 L 533.19 306.97 L 531.02 309.29 L 529.33 310.62 L 527.37 311.68 L 525.13 312.47 L 522.79 312.84 L 520.13 312.72 L 517.06 312.03 L 513.80 310.67 L 510.93 309.04 L 505.73 305.57 L 503.20 304.15 L 500.67 303.23 L 498.93 302.97 L 497.04 303.08 L 494.94 303.61 L 493.51 304.44 L 492.67 305.56 L 492.33 307.05 L 492.44 308.67 L 492.97 310.61 L 494.02 312.96 L 496.12 316.37 L 499.12 320.21 L 502.61 323.92 L 506.73 327.64 L 511.18 331.06 L 515.94 334.10 L 526.30 339.49 L 542.04 347.11 L 560.97 356.12 L 580.89 365.68 L 599.61 374.93 L 608.09 379.31 L 614.94 383.03 L 621.02 386.63 L 624.70 389.15 L 627.44 391.56 L 629.94 394.23 L 632.20 397.19 L 635.24 401.98 L 638.12 407.29 L 643.79 418.69 L 646.92 424.60 L 650.54 430.67 L 653.21 434.60 L 656.25 438.54 L 659.70 442.48 L 662.49 445.87 L 665.09 449.78 L 667.47 454.26 L 669.53 458.91 L 671.38 463.80 L 673.02 468.95 L 675.08 476.73 L 676.71 484.30 L 677.99 491.70 L 678.89 498.05 L 679.94 507.96 L 680.21 511.76 L 682.05 512.73 L 686.56 515.08 L 692.18 517.99 L 697.40 520.66 L 700.67 522.26 L 704.34 523.97 L 707.20 524.99 L 711.51 526.03 L 714.57 526.49 L 718.39 526.76 L 723.08 526.79 L 727.73 526.51 L 733.31 525.81 L 739.96 524.60 Z" fill="#9a9adb" fill-rule="nonzero" node-id="181" stroke-linecap="butt" stroke-width="1" target-height="250.36075" target-width="270.95825" target-x="492.33173" target-y="276.42593"></path><path d="M 758.34 319.75 L 760.29 322.55 L 761.79 325.59 L 762.81 328.82 L 763.34 332.19 L 762.41 336.57 L 759.96 348.14 L 756.51 364.49 L 752.56 383.25 L 748.62 402.02 L 745.21 418.42 L 742.83 430.06 L 740.05 444.33 L 738.59 452.81 L 737.20 462.44 L 736.13 472.36 L 735.47 482.85 L 735.33 489.92 L 735.52 496.98 L 736.02 504.07 L 736.91 511.10 L 738.24 517.93 L 740.01 524.56 L 733.36 525.77 L 727.78 526.47 L 723.13 526.75 L 718.43 526.72 L 714.61 526.46 L 711.54 526.00 L 707.23 524.96 L 704.37 523.94 L 700.69 522.23 L 697.42 520.63 L 692.21 517.96 L 686.58 515.04 L 682.07 512.69 L 680.23 511.72 L 680.02 508.09 L 679.58 503.83 L 678.53 496.13 L 681.90 493.99 L 685.39 491.35 L 690.69 486.64 L 694.24 483.07 L 698.30 478.46 L 702.94 472.64 L 707.24 466.61 L 711.82 459.31 L 716.70 450.58 L 719.99 444.01 L 723.30 436.61 L 726.64 428.31 L 730.00 419.03 Z" fill="#7574ba" fill-rule="nonzero" node-id="183" stroke-linecap="butt" stroke-width="1" target-height="206.99963" target-width="84.81" target-x="678.53" target-y="319.75"></path><path d="M 1065.58 403.81 L 1062.50 402.14 L 1059.12 400.47 L 1053.90 398.12 L 1048.06 395.78 L 1040.74 393.22 L 1032.93 390.95 L 1023.99 388.93 L 1017.86 387.89 L 1011.40 387.14 L 1004.60 386.70 L 997.78 386.67 L 990.77 387.10 L 983.53 388.03 L 976.39 389.48 L 969.14 391.59 L 961.75 394.38 L 956.42 396.86 L 951.06 399.81 L 945.66 403.26 L 940.22 407.24 L 935.15 411.48 L 930.07 416.33 L 924.99 421.85 L 919.90 428.07 L 922.52 425.81 L 925.61 423.57 L 930.92 420.28 L 934.83 418.18 L 939.79 415.87 L 945.94 413.34 L 952.18 411.14 L 959.62 408.96 L 968.41 406.83 L 977.24 405.14 L 987.44 403.72 L 999.15 402.62 L 1028.28 402.24 L 1047.53 402.47 L 1058.86 403.01 L 1064.23 403.56 L 1065.58 403.81 Z" fill="#7574ba" fill-rule="nonzero" node-id="185" stroke-linecap="butt" stroke-width="1" target-height="41.404022" target-width="145.68011" target-x="919.89996" target-y="386.66595"></path><path d="M 661.55 499.05 L 658.53 499.57 L 655.53 500.56 L 652.52 502.02 L 648.20 504.83 L 643.70 508.49 L 639.30 512.57 L 634.63 517.18 L 624.82 526.84 L 619.51 531.63 L 613.79 536.22 L 599.40 547.40 L 592.33 552.90 L 585.38 558.05 L 578.31 562.82 L 571.25 566.92 L 566.40 569.28 L 561.49 571.22 L 556.51 572.75 L 548.86 574.74 L 541.14 576.91 L 533.51 579.37 L 526.13 582.23 L 521.36 584.42 L 516.83 586.88 L 512.54 589.61 L 508.50 592.68 L 504.79 596.13 L 501.40 599.98 L 494.04 609.64 L 489.96 615.39 L 485.62 621.91 L 481.46 628.75 L 477.49 636.05 L 473.94 643.61 L 470.99 651.33 L 469.40 656.59 L 468.24 661.81 L 467.49 666.99 L 467.21 672.21 L 467.49 677.31 L 468.33 682.32 L 471.78 697.73 L 474.39 709.06 L 475.69 713.72 L 477.05 717.61 L 478.68 721.26 L 480.65 724.69 L 483.00 727.99 L 486.06 731.60 L 488.65 734.78 L 491.22 738.49 L 493.76 742.78 L 497.29 749.48 L 500.92 756.86 L 504.58 764.35 L 508.49 771.87 L 511.27 776.79 L 514.24 781.44 L 517.39 785.85 L 526.63 798.24 L 531.12 804.14 L 535.87 809.90 L 541.02 815.42 L 547.05 820.99 L 551.37 824.45 L 556.37 828.02 L 562.13 831.67 L 571.22 836.97 L 581.17 842.54 L 591.35 848.01 L 601.66 853.31 L 611.95 858.35 L 621.61 862.82 L 631.03 866.85 L 639.07 869.92 L 650.70 874.02 L 663.90 878.77 L 677.24 883.81 L 689.31 888.81 L 694.60 891.29 L 698.67 893.44 L 702.12 895.69 L 703.91 897.37 L 705.37 898.87 L 706.53 899.52 L 707.50 899.59 L 708.48 899.25 L 709.50 898.52 L 710.60 897.29 L 713.86 892.60 L 715.74 890.02 L 717.91 887.64 L 722.94 882.16 L 732.63 871.11 L 745.87 856.00 L 761.55 838.36 L 778.58 819.71 L 787.29 810.43 L 795.83 801.57 L 804.34 793.03 L 812.22 785.45 L 819.96 778.43 L 826.62 772.88 L 833.47 767.22 L 840.21 761.21 L 846.85 754.84 L 856.49 744.95 L 865.86 734.75 L 883.80 714.23 L 892.49 704.22 L 900.79 694.91 L 909.11 686.07 L 916.96 678.43 L 922.00 673.39 L 925.86 668.82 L 928.70 664.66 L 931.08 660.22 L 932.70 656.16 L 933.65 652.43 L 934.14 648.61 L 934.19 645.07 L 933.83 641.77 L 932.75 636.97 L 931.26 632.71 L 927.96 625.27 L 926.15 620.84 L 924.25 615.29 L 920.74 603.33 L 917.65 591.53 L 915.20 582.04 L 914.01 578.47 L 912.64 575.61 L 910.97 572.99 L 908.98 570.45 L 904.05 564.93 L 901.19 561.67 L 897.70 557.40 L 894.51 552.76 L 892.09 548.28 L 888.17 539.57 L 886.17 535.56 L 883.87 531.99 L 882.06 529.88 L 879.84 527.98 L 877.17 526.28 L 874.26 524.96 L 871.44 524.02 L 868.69 523.43 L 864.52 522.93 L 860.42 522.74 L 852.30 522.42 L 848.32 521.84 L 844.31 520.66 L 840.79 519.65 L 835.73 518.84 L 830.21 518.36 L 823.64 518.07 L 809.47 518.03 L 794.64 518.36 L 780.56 518.72 L 772.28 519.22 L 763.96 520.22 L 747.61 522.58 L 739.64 523.41 L 732.13 523.61 L 727.20 523.28 L 722.54 522.44 L 718.10 521.09 L 712.83 518.84 L 707.17 516.08 L 695.63 510.00 L 689.73 506.98 L 683.89 504.23 L 678.01 501.85 L 672.39 500.12 L 668.61 499.34 L 665.00 498.99 L 661.55 499.05 Z" fill="#9a9adb" fill-rule="nonzero" node-id="187" stroke-linecap="butt" stroke-width="1" target-height="400.60004" target-width="466.97632" target-x="467.21088" target-y="498.99023"></path><g clip-path="url(#clip-path-6)" group-id="6" id="sillyvg_g_5" node-id="189"><path d="M 590.88 538.10 L 589.17 543.05 L 587.97 548.37 L 587.56 552.01 L 587.48 556.09 L 587.79 560.66 L 588.46 565.18 L 589.65 570.44 L 591.44 576.53 L 593.55 582.50 L 596.39 589.47 L 600.06 597.56 L 606.30 609.97 L 614.77 625.34 L 624.39 641.63 L 636.70 661.43 L 656.00 691.74 L 670.04 713.66 L 679.66 728.56 L 685.69 737.79 L 688.96 742.70 L 690.31 744.65 L 690.58 745.00 L 690.90 740.69 L 692.04 729.23 L 692.96 721.75 L 694.24 712.81 L 695.79 703.56 L 697.74 693.64 L 700.06 683.70 L 702.80 673.91 L 704.91 667.47 L 707.20 661.44 L 709.66 655.81 L 712.48 650.35 L 715.46 645.62 L 718.58 641.55 L 726.19 632.38 L 732.65 623.78 L 738.05 615.72 L 741.77 609.38 L 744.89 603.21 L 747.45 597.19 L 749.47 591.30 L 751.05 585.22 L 752.08 579.10 L 752.60 572.90 L 752.58 566.62 L 752.20 563.00 L 751.39 559.00 L 750.11 554.58 L 747.68 548.02 L 744.54 541.02 L 741.00 534.07 L 737.14 527.17 L 733.10 520.44 L 729.17 514.25 L 721.91 503.50 L 716.62 496.15 L 714.58 493.43 L 664.15 479.02 Z" fill="#f5d084" fill-rule="nonzero" group-id="6" node-id="191" stroke-linecap="butt" stroke-width="1" target-height="265.98" target-width="165.11694" target-x="587.4797" target-y="479.02"></path></g></svg>