<?xml version="1.0" standalone="no"?><!DOCTYPE svg PUBLIC "-//W3C//DTD SVG 1.1//EN" "http://www.w3.org/Graphics/SVG/1.1/DTD/svg11.dtd"><svg t="1681286413643" class="icon" viewBox="0 0 1122 1024" version="1.1" xmlns="http://www.w3.org/2000/svg" p-id="2668" xmlns:xlink="http://www.w3.org/1999/xlink" width="219.140625" height="200"><path d="M1080.622731 341.912487v259.142142l41.635504 41.289981-78.779211 78.779211-78.779211-79.643018 51.828428-51.828428v-209.041328l-441.923732 243.593613a64.267251 64.267251 0 0 1-57.011271 0L28.678397 354.35131c-38.007514-21.076894-38.353037-55.801941 0-77.051597L517.593238 6.582556a64.267251 64.267251 0 0 1 56.665748 0l489.433125 270.544396c31.44258 17.276143 37.143707 44.054164 17.276143 64.785535zM574.258986 786.773164l317.535504-174.834565c15.548528-8.638071 27.987351-1.036569 27.987351 17.276143v166.542016a58.738885 58.738885 0 0 1-27.987351 47.509393L574.258986 1017.582431a64.612774 64.612774 0 0 1-56.147464 0L200.576018 842.747866a59.602693 59.602693 0 0 1-28.505636-47.509392v-166.714778c0-18.312711 12.611584-25.223168 28.160113-17.276143l317.362743 175.525611a64.612774 64.612774 0 0 0 56.147464 0z" fill="#1296db" p-id="2669"></path></svg>