<?xml version="1.0" standalone="no"?><!DOCTYPE svg PUBLIC "-//W3C//DTD SVG 1.1//EN" "http://www.w3.org/Graphics/SVG/1.1/DTD/svg11.dtd"><svg t="1656386491211" class="icon" viewBox="0 0 1024 1024" version="1.1" xmlns="http://www.w3.org/2000/svg" p-id="5432" xmlns:xlink="http://www.w3.org/1999/xlink" width="200" height="200"><defs><style type="text/css">@font-face { font-family: feedback-iconfont; src: url("//at.alicdn.com/t/font_1031158_u69w8yhxdu.woff2?t=1630033759944") format("woff2"), url("//at.alicdn.com/t/font_1031158_u69w8yhxdu.woff?t=1630033759944") format("woff"), url("//at.alicdn.com/t/font_1031158_u69w8yhxdu.ttf?t=1630033759944") format("truetype"); }
</style></defs><path d="M713.142857 590.043429a36.571429 36.571429 0 0 1 0 63.341714L438.857143 811.739429a36.571429 36.571429 0 0 1-54.857143-31.670858v-316.708571A36.571429 36.571429 0 0 1 438.857143 431.689143l274.285714 158.354286z m-256-63.341715v190.025143L621.714286 621.714286 457.142857 526.701714z" p-id="5433"></path><path d="M146.285714 0a146.285714 146.285714 0 0 0-146.285714 146.285714v731.428572a146.285714 146.285714 0 0 0 146.285714 146.285714h731.428572a146.285714 146.285714 0 0 0 146.285714-146.285714V146.285714a146.285714 146.285714 0 0 0-146.285714-146.285714H146.285714z m731.428572 73.142857a73.142857 73.142857 0 0 1 73.142857 73.142857v73.142857H73.142857V146.285714a73.142857 73.142857 0 0 1 73.142857-73.142857h731.428572zM73.142857 877.714286V292.571429h877.714286v585.142857a73.142857 73.142857 0 0 1-73.142857 73.142857H146.285714a73.142857 73.142857 0 0 1-73.142857-73.142857z" p-id="5434"></path></svg>