<?xml version="1.0" standalone="no"?><!DOCTYPE svg PUBLIC "-//W3C//DTD SVG 1.1//EN" "http://www.w3.org/Graphics/SVG/1.1/DTD/svg11.dtd"><svg t="1656386112528" class="icon" viewBox="0 0 1024 1024" version="1.1" xmlns="http://www.w3.org/2000/svg" p-id="3637" xmlns:xlink="http://www.w3.org/1999/xlink" width="200" height="200"><defs><style type="text/css">@font-face { font-family: feedback-iconfont; src: url("//at.alicdn.com/t/font_1031158_u69w8yhxdu.woff2?t=1630033759944") format("woff2"), url("//at.alicdn.com/t/font_1031158_u69w8yhxdu.woff?t=1630033759944") format("woff"), url("//at.alicdn.com/t/font_1031158_u69w8yhxdu.ttf?t=1630033759944") format("truetype"); }
</style></defs><path d="M501.334591 586.652234l-42.657542 0c-11.778254 0-21.322631 9.549493-21.322631 21.328771s9.544377 21.328771 21.322631 21.328771l42.657542 0c11.784394 0 21.334911-9.549493 21.334911-21.328771S513.118985 586.652234 501.334591 586.652234zM394.696876 394.695341l-10.67513 0c-11.768021 0-21.328771 9.549493-21.328771 21.328771 0 11.778254 9.56075 21.328771 21.328771 21.328771l10.67513 0c11.774161 0 21.323655-9.550517 21.323655-21.328771C416.02053 404.244834 406.471037 394.695341 394.696876 394.695341zM394.696876 490.673276l-10.67513 0c-11.768021 0-21.328771 9.550517-21.328771 21.328771 0 11.779278 9.56075 21.328771 21.328771 21.328771l10.67513 0c11.774161 0 21.323655-9.549493 21.323655-21.328771C416.02053 500.223792 406.471037 490.673276 394.696876 490.673276zM394.696876 586.652234l-10.67513 0c-11.768021 0-21.328771 9.549493-21.328771 21.328771s9.56075 21.328771 21.328771 21.328771l10.67513 0c11.774161 0 21.323655-9.549493 21.323655-21.328771S406.471037 586.652234 394.696876 586.652234zM458.677049 437.351859l138.6365 0c11.779278 0 21.334911-9.550517 21.334911-21.328771 0-11.779278-9.555633-21.328771-21.334911-21.328771L458.677049 394.694317c-11.778254 0-21.322631 9.549493-21.322631 21.328771C437.355441 427.802366 446.899818 437.351859 458.677049 437.351859zM533.333376 490.673276l-74.655304 0c-11.778254 0-21.322631 9.550517-21.322631 21.328771 0 11.779278 9.544377 21.328771 21.322631 21.328771l74.655304 0c11.779278 0 21.323655-9.549493 21.323655-21.328771C554.656007 500.223792 545.11163 490.673276 533.333376 490.673276zM511.994372 128.08212c-212.025974 0-383.909693 171.883719-383.909693 383.919926 0 212.025974 171.883719 383.91481 383.909693 383.91481 212.036207 0 383.919926-171.888835 383.919926-383.91481C895.914298 299.965839 724.030579 128.08212 511.994372 128.08212zM714.621279 671.966295c0 29.445636-23.86964 53.321416-53.326533 53.321416l-298.600749 0c-29.441543 0-53.320393-23.87578-53.320393-53.321416L309.373605 352.037798c0-29.451776 23.879873-53.321416 53.320393-53.321416l298.600749 0c25.452695 0 46.656623 17.860786 51.978838 41.699728L562.503742 550.691207l-1.385557 75.588559 73.30147-17.330714 80.2006-106.241696L714.620255 671.966295zM625.239576 585.620741l-42.657542 10.658757 0-42.651402 107.164718-142.895501 42.641169 32.019251L625.239576 585.620741zM745.182318 425.688215l-42.637076-32.014134 17.924231-23.90034 42.641169 32.023344L745.182318 425.688215z" p-id="3638"></path></svg>